<svg width="715" height="574" viewBox="0 0 715 574" fill="none" xmlns="http://www.w3.org/2000/svg">
<path d="M706.582 473.813C699.184 417.248 727.363 357.662 707.778 304.062C701.559 287.04 690.898 272.055 682.209 256.142C669.093 232.119 660.402 205.705 656.697 178.606C654.274 160.877 653.955 142.825 649.918 125.391C638.72 77.0285 596.776 37.2053 547.763 28.4028C508.263 21.3084 466.059 30.3898 431.616 50.9474C276.91 143.284 203.76 99.6056 149.783 131.464C115.951 151.432 97.0724 188.562 84.4944 225.681C71.9163 262.8 74.5851 343.638 45.4822 369.977C37.6815 377.037 28.7909 382.901 21.559 390.539C-2.24101 415.677 -3.30982 456.1 10.5321 487.789C23.1355 516.642 52.6867 555.531 81.6444 570.12C82.679 570.641 83.7346 571.127 84.8072 571.584H166.845C182.356 568.74 216.157 571.783 228.641 570.575C277.46 565.852 314.415 571.686 356.634 566.97C455.821 555.893 556.158 571.927 655.959 571.118C670.563 571 686.325 570.502 697.884 561.605C710.205 552.122 714.485 535.254 713.864 519.75C713.244 504.247 708.595 489.199 706.582 473.813Z" fill="#CBEFEF"/>
<path opacity="0.4" d="M126.734 475.183C130.609 471.546 134.332 467.566 136.484 462.707C139.062 456.887 139.179 450.288 138.738 443.938C138.106 434.814 136.282 425.448 131.016 417.973C123.481 407.278 110.419 402.316 99.4843 395.139C88.5492 387.962 78.5984 375.126 82.8999 362.768C85.881 354.202 94.9939 348.564 96.9041 339.697C98.9546 330.18 91.6022 320.873 82.9527 316.415C78.647 314.196 74.0663 312.768 69.3432 311.834C64.8343 336.211 58.1798 358.41 45.3514 370.02C42.3532 372.733 39.1942 375.27 36.0301 377.799C36.2776 377.974 36.5274 378.145 36.774 378.321C39.6514 380.376 42.6027 382.687 43.881 385.984C45.7114 390.707 43.7028 396.449 46.1819 400.865C50.4347 408.441 62.5176 405.088 69.839 409.761C72.7429 411.615 74.6852 414.638 76.2669 417.7C79.0571 423.101 81.0118 429.573 78.6815 435.188C73.9331 446.631 56.4588 445.75 48.3227 455.09C39.2955 465.453 46.1306 482.035 41.5377 494.992C38.6833 503.044 31.6747 508.842 24.3062 513.238C32.8823 526.462 43.5555 539.785 55.0644 550.735C56.373 548.528 57.4666 546.203 58.3044 543.807C62.0108 533.205 61.9973 520.872 69.1302 512.2C74.6602 505.477 83.3345 502.43 91.2687 498.854C104.285 492.989 116.322 484.955 126.734 475.183Z" fill="white"/>
<path opacity="0.4" d="M649.788 125.435C649.561 124.458 649.318 123.486 649.067 122.516C642.983 122.994 636.885 123.444 630.948 124.761C616.166 128.04 603.059 136.522 588.604 141.029C563.444 148.874 536.33 144.2 509.993 145.116C485.22 145.977 458.731 151.522 436.831 139.901C433.803 138.295 430.79 136.218 429.38 133.092C427.277 128.433 429.503 122.699 433.374 119.363C437.246 116.028 442.388 114.615 447.405 113.65C469.176 109.463 491.587 111.936 513.752 112.419C535.916 112.902 559.151 111.061 578.027 99.4249C587.003 93.8924 594.961 85.7815 597.619 75.5734C598.775 71.1335 598.994 66.2151 601.806 62.5916C603.519 60.3846 605.89 59.0255 608.537 58.1556C592.893 44.5447 574.119 34.5349 553.933 29.761C548.184 31.0095 542.738 33.0422 537.798 36.1422C534.003 38.5322 530.54 41.7787 528.973 45.9836C527.405 50.1885 528.144 55.4515 531.572 58.3439C533.446 59.9238 535.934 60.701 537.631 62.469C540.642 65.6069 540.075 70.9693 537.5 74.474C534.924 77.9787 530.867 80.0351 526.906 81.8266C506.726 90.9537 484.937 96.5033 462.852 98.1401C444.424 99.506 425.898 98.1696 407.435 98.9455C388.973 99.7212 370.105 102.789 354.173 112.155C351.648 113.64 349.126 115.362 347.65 117.893C346.007 120.712 345.883 124.154 346.12 127.409C346.785 136.551 350.006 145.493 355.322 152.957C356.203 154.194 357.14 155.377 358.117 156.519L389.78 149.987L395.382 177.182C400.551 178.328 405.822 179.036 411.036 179.348C432.251 180.615 453.362 176.404 474.546 174.699C520.219 171.022 565.907 179 611.569 182.811C620.171 183.528 628.843 184.097 637.418 183.108C643.979 182.351 650.404 180.623 656.49 178.072C654.137 160.529 653.78 142.68 649.788 125.435Z" fill="white"/>
<path opacity="0.4" d="M688.745 396.269C680.791 392.862 673.423 388.177 665.401 384.934C642.289 375.594 615.433 378.83 592.671 368.666C588.528 366.816 584.416 364.394 581.967 360.572C579.518 356.749 579.231 351.23 582.364 347.946C585.251 344.92 589.901 344.633 594.081 344.543C609.877 344.202 625.749 343.866 641.405 345.989C648.4 346.938 655.454 348.378 662.46 347.512C672.292 346.296 681.002 340.665 688.756 334.493C690.829 332.843 692.925 331.109 695.438 330.273C697.651 329.537 700.032 329.551 702.364 329.572C706.126 329.607 709.889 329.641 713.652 329.676C712.607 321.029 710.712 312.494 707.647 304.106C705.2 297.407 702.063 291.025 698.631 284.776C691.697 283.358 684.771 281.9 677.838 280.498C672.585 279.435 667.083 278.379 661.937 279.878C654.192 282.134 649.272 289.451 643.535 295.125C632.299 306.241 616.558 311.754 600.904 313.897C585.25 316.039 569.365 315.141 553.566 315.263C531.047 315.437 508.544 317.699 486.44 322.009C479.731 323.317 472.696 325 467.751 329.721C460.082 337.043 460.001 349.934 465.272 359.136C470.543 368.339 479.97 374.4 489.646 378.73C528.065 395.925 574.083 391.049 611.225 410.857C623.539 417.424 634.445 426.517 647.141 432.311C665.376 440.632 685.275 441.443 705.527 441.159C706.235 428.298 707.927 415.372 709.67 402.482C702.498 401.074 695.466 399.149 688.745 396.269Z" fill="white"/>
<path opacity="0.8" d="M540.612 100.55C539.13 94.093 533.355 89.2755 526.453 89.2755C525.185 89.2755 523.956 89.4388 522.785 89.7436C519.378 82.4532 511.985 77.4016 503.411 77.4016C501.195 77.4016 499.057 77.7392 497.046 78.3657C492.431 70.7176 484.045 65.6035 474.466 65.6035C463.069 65.6035 453.362 72.842 449.684 82.9756C447.08 81.5231 444.083 80.6923 440.89 80.6923C430.9 80.6923 422.802 88.7964 422.802 98.7935C422.802 99.3864 422.832 99.9719 422.888 100.55H540.612V100.55Z" fill="white"/>
<path d="M571.21 554.279C569.995 555.459 568.976 557.796 567.897 560.271C567.021 562.28 566.079 564.433 564.824 566.56H532.943C533.808 566.019 534.692 565.509 535.603 565.044C537.663 563.992 539.756 563.176 541.602 562.456C544.326 561.393 546.899 560.389 548.217 559.07C549.418 557.867 550.426 555.556 551.493 553.108C553.057 549.523 555.002 545.062 558.747 541.425C563.805 536.515 570.236 534.874 575.404 533.556C579.02 532.634 582.434 531.763 584.031 530.157C584.892 529.292 585.759 527.674 586.677 525.961C587.256 524.881 587.854 523.764 588.564 522.601C594.428 512.985 604.574 506.239 615.704 504.556C616.336 504.461 616.925 504.387 617.494 504.316C618.409 504.202 626.843 502.48 629.655 504.414C634.94 508.047 634.751 515.988 629.232 519.255C628.597 519.63 627.927 519.977 627.218 520.286C624.448 521.496 621.82 521.825 619.709 522.088C619.232 522.147 618.781 522.204 618.378 522.265C612.505 523.153 606.935 526.856 603.84 531.93C603.39 532.669 602.932 533.523 602.447 534.427C602.295 534.711 602.137 535.005 601.975 535.304L594.098 535.568L599.785 538.997C598.926 540.28 597.925 541.575 596.718 542.788C591.639 547.898 585.088 549.569 579.824 550.912C576.236 551.827 572.845 552.692 571.21 554.279Z" fill="#9CDEDC"/>
<path d="M566.744 526.656C565.506 528.48 564.823 531.727 564.099 535.166C563.021 540.286 561.8 546.09 558.168 551.622C554.152 557.739 548.436 561.451 543.844 564.434C542.723 565.161 541.642 565.865 540.644 566.56H511.036C514.084 560.07 518.586 554.269 524.203 549.764C526.551 547.881 529.003 546.289 531.166 544.884C534.358 542.811 537.373 540.853 538.705 538.824C539.918 536.975 540.594 533.763 541.31 530.363C542.358 525.382 543.662 519.184 547.478 513.562C552.629 505.972 560.393 502.184 566.632 499.142C570.997 497.013 575.119 495.003 576.73 492.535C577.599 491.205 578.278 488.915 578.997 486.49C579.45 484.961 579.919 483.38 580.517 481.709C583.267 474.027 587.944 467.13 593.919 461.647L599.252 470.074L596.903 459.114C600.956 455.929 605.49 453.354 610.351 451.557C611.13 451.269 611.861 451.02 612.568 450.779C613.704 450.391 623.999 445.974 628.091 447.696C633.727 450.067 636.222 456.16 634.726 461.459L624.131 462.354L632.17 466.008C631.945 466.251 631.712 466.491 631.46 466.72C630.75 467.366 629.987 467.984 629.166 468.566C625.954 470.838 622.691 471.95 620.07 472.842C619.478 473.044 618.918 473.234 618.421 473.418C611.171 476.099 605.048 482.287 602.441 489.569C602.061 490.629 601.703 491.838 601.324 493.117C600.733 495.11 600.061 497.375 599.104 499.718L587.109 502.027L597.131 503.799C596.847 504.297 596.546 504.792 596.225 505.284C591.098 513.135 583.189 516.992 576.835 520.092C572.502 522.206 568.409 524.202 566.744 526.656Z" fill="#8FD0D6"/>
<path d="M575.713 458.44C575.943 462.258 576.219 466.902 575.364 471.847C569.201 475.32 557.164 482.106 558.537 481.375C559.823 480.691 568.697 478.63 573.896 477.458C570.799 486.207 564.645 492.577 559.58 497.815C555.666 501.863 551.969 505.687 551.119 509.045C550.487 511.541 551.03 515.378 551.606 519.441C552.463 525.491 553.435 532.348 551.652 539.868C549.68 548.186 544.886 554.54 541.033 559.645C539.464 561.725 537.982 563.689 536.862 565.529C536.657 565.867 536.461 566.212 536.271 566.561H507.316C508.649 561.231 510.765 556.094 513.632 551.379C515.459 548.375 517.516 545.65 519.33 543.245C522.008 539.697 524.537 536.345 525.191 533.586C525.787 531.073 525.249 527.278 524.68 523.26C523.846 517.376 522.808 510.053 524.757 502.36C527.387 491.974 534.4 484.72 540.036 478.891C543.978 474.814 547.701 470.963 548.487 467.611C548.911 465.805 548.744 463.02 548.567 460.072C548.455 458.213 548.34 456.291 548.331 454.219C548.26 438.217 555.03 422.476 566.579 411.459L571.894 413.806L569.271 409.049C569.935 408.491 570.572 407.979 571.188 407.483C572.281 406.605 581.821 397.65 586.998 397.907C596.729 398.391 602.812 408.814 598.274 417.444C597.753 418.436 597.162 419.419 596.491 420.385C593.871 424.161 590.733 426.682 588.212 428.707C587.642 429.165 587.104 429.598 586.632 429.997C579.742 435.832 575.486 445.067 575.525 454.099C575.532 455.414 575.62 456.884 575.713 458.44Z" fill="#74BDC1"/>
<path d="M152.604 561.285C153.955 562.306 155.255 564.499 156.631 566.822C157.747 568.707 158.948 570.728 160.455 572.684L192.093 568.748C191.168 568.318 190.227 567.921 189.266 567.572C187.093 566.783 184.915 566.231 182.994 565.744C180.16 565.026 177.483 564.347 176.012 563.201C174.672 562.156 173.386 559.986 172.025 557.689C170.032 554.325 167.552 550.138 163.387 546.991C157.763 542.743 151.178 541.909 145.887 541.238C142.186 540.769 138.69 540.327 136.907 538.93C135.947 538.177 134.887 536.679 133.764 535.092C133.057 534.092 132.325 533.057 131.477 531.99C124.473 523.171 113.573 517.73 102.32 517.434C101.682 517.417 101.089 517.416 100.515 517.416C99.5923 517.416 91.0106 516.749 88.4587 519.014C83.6614 523.272 84.828 531.129 90.7077 533.69C91.3838 533.984 92.0918 534.245 92.8333 534.465C95.7316 535.324 98.3797 535.325 100.507 535.326C100.988 535.326 101.442 535.326 101.849 535.337C107.787 535.493 113.772 538.481 117.468 543.134C118.006 543.811 118.565 544.602 119.157 545.439C119.344 545.703 119.537 545.975 119.734 546.252L127.584 545.542L122.363 549.646C123.374 550.814 124.527 551.975 125.874 553.03C131.544 557.473 138.251 558.323 143.64 559.006C147.315 559.472 150.786 559.911 152.604 561.285Z" fill="#9CDEDC"/>
<path d="M153.631 533.321C155.084 534.978 156.163 538.116 157.305 541.439C159.005 546.388 160.933 551.997 165.219 557.038C169.959 562.613 176.088 565.591 181.013 567.983C182.215 568.567 183.375 569.132 184.451 569.699L213.833 566.044C210.008 559.98 204.825 554.778 198.696 551.002C196.134 549.423 193.504 548.145 191.185 547.018C187.762 545.355 184.528 543.784 182.956 541.935C181.524 540.251 180.458 537.147 179.328 533.86C177.674 529.047 175.616 523.057 171.137 517.95C165.089 511.052 156.917 508.253 150.351 506.003C145.758 504.43 141.419 502.944 139.516 500.694C138.49 499.481 137.533 497.292 136.521 494.974C135.883 493.513 135.223 492.002 134.424 490.418C130.748 483.134 125.256 476.867 118.65 472.164L114.397 481.184L115.377 470.018C110.963 467.358 106.146 465.362 101.1 464.179C100.292 463.989 99.5356 463.832 98.8041 463.681C97.6286 463.437 86.8683 460.324 83.0196 462.537C77.7182 465.587 75.9942 471.941 78.1313 477.014L88.7558 476.595L81.2284 481.214C81.4818 481.428 81.7428 481.636 82.0209 481.832C82.8048 482.386 83.6383 482.905 84.5253 483.381C87.9928 485.24 91.3669 485.94 94.0781 486.502C94.6909 486.629 95.2698 486.749 95.785 486.869C103.311 488.635 110.15 494.02 113.635 500.924C114.142 501.93 114.647 503.086 115.181 504.309C116.013 506.213 116.959 508.378 118.197 510.584L130.385 511.396L120.659 514.391C121.002 514.849 121.361 515.304 121.741 515.753C127.796 522.911 136.12 525.762 142.808 528.054C147.368 529.616 151.676 531.091 153.631 533.321Z" fill="#8FD0D6"/>
<path d="M136.321 466.733C136.564 470.55 136.862 475.193 138.32 479.995C144.865 482.68 157.646 487.929 156.194 487.373C154.833 486.852 145.772 485.903 140.469 485.381C144.62 493.681 151.513 499.243 157.185 503.815C161.568 507.349 165.708 510.688 166.966 513.915C167.9 516.314 167.834 520.188 167.764 524.291C167.659 530.401 167.54 537.326 170.236 544.568C173.218 552.579 178.759 558.293 183.212 562.883C185.025 564.753 186.738 566.52 188.076 568.208C188.322 568.518 188.558 568.837 188.79 569.159L217.524 565.585C215.544 560.459 212.812 555.623 209.384 551.298C207.202 548.543 204.824 546.092 202.727 543.93C199.633 540.739 196.71 537.725 195.721 535.068C194.82 532.648 194.886 528.815 194.955 524.758C195.057 518.816 195.184 511.42 192.303 504.027C188.412 494.044 180.559 487.712 174.248 482.623C169.833 479.064 165.663 475.701 164.47 472.472C163.827 470.732 163.649 467.948 163.462 465C163.343 463.142 163.221 461.22 162.974 459.163C161.072 443.274 152.413 428.49 139.594 418.982L134.609 421.967L136.626 416.924C135.898 416.452 135.203 416.022 134.53 415.607C133.337 414.87 122.767 407.161 117.661 408.055C108.063 409.736 103.312 420.831 108.879 428.834C109.518 429.755 110.226 430.657 111.011 431.533C114.076 434.956 117.5 437.07 120.252 438.769C120.874 439.153 121.462 439.516 121.979 439.854C129.536 444.794 134.898 453.433 135.972 462.401C136.129 463.708 136.222 465.177 136.321 466.733Z" fill="#74BDC1"/>
<path d="M389.777 149.984L150.081 199.432L218.889 533.45L458.584 484.003L389.777 149.984Z" fill="#CBEFEF"/>
<path d="M362.327 177.4L125.006 237.232L208.263 567.942L445.585 508.11L362.327 177.4Z" fill="white"/>
<path d="M231.033 343.321L177.172 356.9L163.603 303L217.464 289.421L231.033 343.321ZM180.683 351.018L225.156 339.807L213.952 295.302L169.479 306.514L180.683 351.018Z" fill="#FF5B7E"/>
<path d="M251.631 423.819L197.143 437.555L183.416 383.029L237.904 369.292L251.631 423.819ZM201.123 430.89L244.971 419.836L233.924 375.957L190.077 387.011L201.123 430.89Z" fill="#FF5B7E"/>
<path d="M271.837 504.082L217.349 517.818L203.622 463.292L258.11 449.555L271.837 504.082ZM221.329 511.153L265.176 500.099L254.13 456.221L210.283 467.275L221.329 511.153Z" fill="#FF5B7E"/>
<path d="M362.302 269.623L237.54 301.077L238.801 306.088L363.564 274.634L362.302 269.623Z" fill="#CFE4FF"/>
<path d="M366.695 287.069L241.932 318.523L243.194 323.534L367.957 292.08L366.695 287.069Z" fill="#CFE4FF"/>
<path d="M382.509 349.886L257.747 381.34L259.008 386.351L383.771 354.897L382.509 349.886Z" fill="#CFE4FF"/>
<path d="M386.902 367.332L262.139 398.787L263.401 403.797L388.163 372.343L386.902 367.332Z" fill="#CFE4FF"/>
<path d="M402.716 430.148L277.953 461.603L279.215 466.614L403.977 435.159L402.716 430.148Z" fill="#CFE4FF"/>
<path d="M407.108 447.595L282.345 479.05L283.607 484.06L408.37 452.606L407.108 447.595Z" fill="#CFE4FF"/>
<path d="M217.587 270.94L201.203 249.505L205.577 248.402L213.892 259.596C216.978 263.761 218.307 265.776 219.102 267.057L219.169 267.039C219.235 265.725 219.591 263.301 220.215 258.339L222.365 244.169L226.612 243.099L222.164 269.786L217.587 270.94Z" fill="#07085B"/>
<path d="M256.551 248.254C258.253 255.017 255.167 262.006 246.95 264.077C239.116 266.052 232.921 261.698 231.148 254.656C229.473 248 232.966 240.957 240.78 238.987C248.622 237.01 254.879 241.612 256.551 248.254ZM235.326 253.509C236.591 258.531 240.653 262.205 246.301 260.781C251.927 259.362 253.601 254.288 252.366 249.381C251.156 244.573 247.15 240.843 241.412 242.289C236.031 243.646 234.11 248.677 235.326 253.509Z" fill="#07085B"/>
<path d="M265.326 236.849L256.335 239.116L255.504 235.815L277.462 230.28L278.292 233.58L269.316 235.843L274.537 256.582L270.547 257.589L265.326 236.849Z" fill="#07085B"/>
<path d="M302.841 237.81L288.671 241.382L290.596 249.027L306.255 245.079L306.578 248.505L287.453 253.326L281.401 229.286L300.291 224.524L301.121 227.822L286.204 231.583L287.841 238.084L302.01 234.512L302.841 237.81Z" fill="#07085B"/>
<path d="M198.498 341.358L182.213 332.368L184.708 327.844L195.91 334.028L209.083 301.739L213.864 303.692L198.498 341.358Z" fill="#07085B"/>
<path d="M229.981 386.366L224.717 383.218L215.774 398.196L200.806 389.246L197.661 394.514L212.628 403.464L203.685 418.442L208.948 421.589L217.892 406.611L232.859 415.561L236.005 410.294L221.037 401.344L229.981 386.366Z" fill="#07085B"/>
<path d="M414.492 181.41C414.492 181.41 420.956 239.762 422.881 253.248C424.807 266.736 423.707 333.62 429.483 347.933C435.258 362.245 444.335 380.412 443.235 399.404C442.135 418.395 441.86 487.206 441.86 487.206L536.751 485.004C536.751 485.004 533.055 384.136 532.229 374.778C532.229 374.778 553.529 360.043 561.506 337.749C569.482 315.454 589.561 277.195 593.962 273.616C598.363 270.038 611.84 263.708 610.74 259.029C609.64 254.349 597.537 245.817 574.158 263.708C550.779 281.599 553.804 291.232 547.478 287.379C541.152 283.526 556.417 129.389 536.614 129.389C516.81 129.389 519.349 241.688 512.647 240.954C505.946 240.221 506.221 112.324 491.093 114.801C476.768 117.146 484.767 239.762 479.266 240.312C473.765 240.863 473.215 129.664 460.287 131.04C441.96 132.991 454.787 244.716 450.386 245.267C445.985 245.817 427.282 168.886 419.855 169.299C412.36 169.716 414.492 181.41 414.492 181.41Z" fill="#FFD0CF"/>
<path d="M358.706 253.537L358.49 245.086L346.475 247.564L345.768 253.136C346.682 254.052 351.572 258.386 358.706 253.537Z" fill="#FFC0BB"/>
<path d="M358.677 252.406L358.49 245.086L346.3 248.88L345.958 251.623C348.662 252.605 353.803 253.799 358.677 252.406Z" fill="#FC8D84"/>
<path d="M366.796 229.819C366.103 231.93 366.954 234.078 368.697 234.616C370.439 235.154 372.414 233.878 373.107 231.766C373.799 229.654 372.948 227.507 371.205 226.969C369.462 226.431 367.488 227.707 366.796 229.819Z" fill="#F99893"/>
<path d="M367.17 241.833C367.623 240.91 367.991 239.94 368.266 238.933C369.061 236.224 369.342 233.391 369.387 230.935C369.396 230.408 369.437 229.884 369.489 229.358C369.695 227.24 369.506 225.025 368.813 222.785C366.584 215.579 359.604 210.556 351.845 210.592C341.392 210.641 333.453 219.252 334.258 229.085C333.106 228.576 331.857 228.534 330.805 229.089C328.787 230.155 328.267 233.002 329.642 235.448C331.018 237.893 333.769 239.012 335.786 237.945C336.066 237.797 336.314 237.612 336.536 237.401C338.101 245.701 345.7 251.617 354.17 250.831C358.312 250.447 361.934 248.525 364.545 245.678C364.722 245.51 364.906 245.315 365.097 245.09C365.937 244.103 366.616 242.999 367.17 241.833Z" fill="#FFC0BB"/>
<path d="M351.367 229.56C351.448 230.383 350.826 231.114 349.978 231.192C349.13 231.271 348.376 230.668 348.294 229.845C348.213 229.023 348.834 228.292 349.683 228.213C350.531 228.134 351.285 228.738 351.367 229.56Z" fill="#333333"/>
<path d="M363.483 228.971C363.564 229.793 362.943 230.524 362.094 230.603C361.246 230.681 360.492 230.078 360.41 229.256C360.329 228.433 360.951 227.702 361.799 227.624C362.648 227.545 363.401 228.148 363.483 228.971Z" fill="#333333"/>
<path d="M352.928 226.434C352.146 226.204 351.404 226.029 350.667 225.932C349.931 225.834 349.208 225.829 348.506 225.93C347.809 226.04 347.11 226.208 346.447 226.529L346.189 226.634C346.104 226.67 346.028 226.723 345.943 226.764L345.438 227.027C345.099 227.209 344.787 227.436 344.411 227.618C344.603 227.273 344.824 226.933 345.083 226.62C345.373 226.342 345.638 226.012 345.997 225.795C346.662 225.286 347.501 224.982 348.351 224.857C349.207 224.734 350.088 224.83 350.879 225.107C351.666 225.392 352.396 225.821 352.928 226.434Z" fill="#333333"/>
<path d="M357.98 225.961C358.454 225.305 359.141 224.815 359.898 224.464C360.661 224.119 361.53 223.948 362.394 223.996C363.252 224.048 364.116 224.278 364.824 224.729C365.202 224.914 365.496 225.219 365.811 225.471C366.098 225.76 366.35 226.08 366.574 226.407C366.182 226.258 365.85 226.059 365.496 225.907L364.968 225.688C364.88 225.655 364.799 225.609 364.71 225.58L364.444 225.498C363.755 225.235 363.043 225.128 362.338 225.079C361.63 225.039 360.91 225.106 360.187 225.267C359.461 225.427 358.738 225.665 357.98 225.961Z" fill="#333333"/>
<path d="M361.806 238.898C361.289 240.732 359.03 242.087 356.347 242.04C353.663 241.994 351.455 240.562 351.005 238.711L361.806 238.898Z" fill="white"/>
<path d="M313.607 358.253L303.334 569.286L325.234 571.514L363.084 354.91L313.607 358.253Z" fill="#1E1E1E"/>
<path d="M341.37 256.844C341.37 256.844 338.914 364.937 339.664 364.92C340.413 364.903 361.222 368.84 361.222 368.84L367.704 359.924L366.565 260.559L355.871 256.844L352.17 255.794L347.386 255.831L341.37 256.844Z" fill="white"/>
<path d="M359.713 341.097L353.022 261.171L350.841 261.17L344.409 341.097L352.061 349.96L359.713 341.097Z" fill="#282828"/>
<path d="M349.768 260.629L350.29 261.075C351.281 261.922 352.732 261.949 353.753 261.14L354.663 260.42L352.237 256.45L350.533 256.845L349.768 260.629Z" fill="#424444"/>
<path d="M448.362 208.576C448.43 208.907 448.838 209.034 449.078 208.796C450.934 206.946 456.812 201.163 457.39 201.529C458.077 201.964 452.95 207.259 453.285 207.936C453.62 208.612 458.49 203.321 459.149 203.904C459.809 204.487 455.207 209.163 455.399 209.506C455.591 209.849 460.479 205.841 461.072 205.951C461.666 206.061 456.969 210.975 457.084 211.457C457.2 211.94 461.568 209.627 461.809 209.979C462.051 210.331 462.271 210.526 453.927 218.552L450.507 221.571L446.384 222.528L443.475 218.352C443.475 218.352 445.845 203.636 446.404 203.381C446.936 203.138 447.316 203.472 448.362 208.576Z" fill="#F7B5B2"/>
<path d="M358.703 253.008C358.703 253.008 355.288 254.986 352.182 255.79C349.077 254.986 345.662 253.008 345.662 253.008L341.37 256.844C342.019 260.359 349.025 262.927 349.025 262.927L352.105 256.827L354.546 262.927C354.546 262.927 359.832 261.456 363.084 258.067L358.703 253.008Z" fill="#E8EFF9"/>
<path d="M452.682 222.527C452.682 222.527 450.083 215.886 441.174 215.192C441.174 215.192 423.837 259.812 361.221 255.912C361.6 271.084 363.387 341.393 364.487 362.931C375.489 361.7 385 360.358 385 360.358C385 360.358 380.051 301.048 383.516 284.952C383.516 284.952 438.576 285.533 452.682 222.527Z" fill="#282828"/>
<path d="M342.251 256.042C334.17 257.888 284.037 270.009 274.261 288.666C263.62 308.972 291.831 347.109 303.956 349.09C303.956 349.09 308.782 344.385 311.257 332.746C311.257 332.746 298.883 319.126 297.275 300.924C297.275 300.924 309.772 295.229 315.216 293.619L310.73 368.275C310.73 368.275 323.811 373.725 335.442 374.716C337.323 374.876 339.913 374.867 342.928 374.741L342.251 256.042Z" fill="#282828"/>
<path d="M342.251 256.042L325.362 271.331L333.807 277.275L325.362 286.685L342.251 364.84V256.042Z" fill="#424444"/>
<path d="M361.222 255.912L378.111 271.084L369.666 277.027L378.111 286.438L364.487 362.931L361.222 255.912Z" fill="#424444"/>
<path opacity="0.5" d="M441.986 260.643C441.986 260.643 493.465 244.505 532.229 258.47C532.229 258.47 485.402 254.746 441.986 260.643Z" fill="#F99893"/>
<path d="M536.166 521.289H436.877V567.323H536.166V521.289Z" fill="#FEB546"/>
<path opacity="0.5" d="M441.986 297.551C441.986 297.551 486.642 336.447 495.532 355.687C495.532 355.687 519.514 311.827 538.948 296.103C538.948 296.103 509.384 308.93 496.153 332.929C496.153 332.929 471.137 306.448 441.986 297.551Z" fill="#F99893"/>
<path opacity="0.5" d="M443.64 353.536C443.64 353.536 447.362 377.949 483.748 374.432C483.748 374.432 454.156 369.315 443.64 353.536Z" fill="#F99893"/>
<path d="M440.43 478.714C454.53 478.963 492.509 479.469 537.119 478.702C540.301 478.647 542.964 481.106 543.168 484.284L545.694 523.52C545.915 526.959 543.188 529.87 539.745 529.87H438.956C435.582 529.87 432.881 527.07 432.998 523.695L434.366 484.471C434.479 481.217 437.178 478.656 440.43 478.714Z" fill="#F4A640"/>
<path d="M532.992 504.285C532.992 508.694 529.421 512.267 525.016 512.267C520.611 512.267 517.04 508.694 517.04 504.285C517.04 499.877 520.611 496.303 525.016 496.303C529.421 496.303 532.992 499.877 532.992 504.285Z" fill="#F3FDFF"/>
<path d="M445.479 369.252H347.468V567.264H445.479V369.252Z" fill="#FF5B7E"/>
<path d="M320.654 567.264H347.468V369.252L320.654 382.823V567.264Z" fill="#E03268"/>
<path d="M314.284 386.01H320.654V382.822L317.469 382.309L314.284 386.01Z" fill="#CE205F"/>
<path d="M419.692 351.26H416.725V341.191C417.865 340.609 418.348 339.224 417.8 338.056L414.964 332.008C414.418 332.584 413.759 333.071 412.997 333.429C412.235 333.786 411.44 333.982 410.648 334.035L413.484 340.082C413.843 340.849 414.558 341.332 415.338 341.433V351.26H394.842V340.02C396.533 339.198 397.256 337.168 396.455 335.46L392.361 326.729C391.572 327.56 390.621 328.263 389.521 328.779C388.421 329.296 387.272 329.579 386.129 329.655L390.224 338.387C390.827 339.672 392.122 340.41 393.455 340.366V351.26H376.209V346.555C377.114 346.092 377.497 344.992 377.062 344.065L374.81 339.262C374.376 339.719 373.852 340.106 373.247 340.39C372.642 340.674 372.011 340.83 371.382 340.871L373.634 345.674C373.875 346.188 374.317 346.541 374.822 346.688V351.26H370.995C367.023 351.26 363.803 354.482 363.803 358.457L402.886 357.223L426.883 358.457C426.884 354.482 423.664 351.26 419.692 351.26Z" fill="#54A9D4"/>
<path d="M452.26 356.298H347.468V369.252H452.26V356.298Z" fill="#E03268"/>
<path d="M314.284 386.01L347.468 369.252V356.298L314.284 373.944V386.01Z" fill="#CE205F"/>
<path d="M395.085 315.718C397.568 321.013 395.292 327.319 390.001 329.803C384.71 332.288 378.409 330.01 375.926 324.715C373.444 319.42 375.72 313.114 381.011 310.63C386.302 308.146 392.603 310.424 395.085 315.718Z" fill="#FEB546"/>
<path d="M376.309 333.205C377.674 336.118 376.422 339.587 373.512 340.953C370.602 342.32 367.135 341.066 365.77 338.154C364.404 335.242 365.656 331.773 368.567 330.407C371.477 329.04 374.943 330.293 376.309 333.205Z" fill="#FEB546"/>
<path d="M416.851 324.383C418.571 328.05 416.994 332.417 413.33 334.138C409.666 335.859 405.301 334.281 403.582 330.614C401.863 326.947 403.439 322.58 407.104 320.859C410.768 319.139 415.132 320.716 416.851 324.383Z" fill="#FEB546"/>
<path d="M256.62 561.555V557.152L251.586 555.757L250.466 556.249L250.275 561.555L251.86 566.178L256.62 561.555Z" fill="#FFC0BB"/>
<path d="M252.196 418.508C252.196 418.508 245.592 426.361 230.039 427.746C214.487 429.131 226.131 437.349 226.131 437.349C226.131 437.349 244.873 440.05 251.421 435.65C257.969 431.25 252.196 418.508 252.196 418.508Z" fill="#04B2A1"/>
<path d="M245.673 471.26L249.245 558.369H257.562L264.891 492.528L255.282 463.03L245.673 471.26Z" fill="#1E1E1E"/>
<path d="M288.784 561.555V557.152L283.751 555.757L282.63 556.249L282.439 561.555L284.024 566.178L288.784 561.555Z" fill="#FFC0BB"/>
<path d="M222.293 414.22L182.749 423.539C181.196 423.905 180.233 425.462 180.599 427.016L194.156 484.622C194.522 486.176 196.078 487.14 197.631 486.773L237.175 477.454C238.728 477.088 239.691 475.531 239.325 473.977L225.768 416.372C225.402 414.817 223.847 413.854 222.293 414.22Z" fill="#282828"/>
<path d="M196.673 480.34L235.191 471.264L222.503 417.34L183.985 426.416L196.673 480.34Z" fill="white"/>
<path d="M193.951 425.555L214.807 420.64L214.513 419.391C213.847 416.562 211.016 414.809 208.189 415.476L197.571 417.978C194.744 418.644 192.992 421.477 193.658 424.306L193.951 425.555Z" fill="#4D5296"/>
<path d="M203.292 430.007L220.347 425.989L219.993 424.484L202.938 428.502L203.292 430.007Z" fill="#CFE4FF"/>
<path d="M204.592 435.532L221.647 431.513L221.293 430.008L204.238 434.027L204.592 435.532Z" fill="#CFE4FF"/>
<path d="M205.892 441.056L222.948 437.037L222.593 435.532L205.538 439.551L205.892 441.056Z" fill="#CFE4FF"/>
<path d="M207.193 446.58L224.249 442.561L223.894 441.056L206.839 445.075L207.193 446.58Z" fill="#CFE4FF"/>
<path d="M208.494 452.104L225.549 448.085L225.195 446.581L208.14 450.599L208.494 452.104Z" fill="#CFE4FF"/>
<path d="M209.793 457.629L226.849 453.61L226.495 452.105L209.439 456.124L209.793 457.629Z" fill="#CFE4FF"/>
<path d="M211.094 463.153L228.149 459.135L227.795 457.63L210.74 461.648L211.094 463.153Z" fill="#CFE4FF"/>
<path d="M212.395 468.677L229.45 464.658L229.096 463.153L212.041 467.172L212.395 468.677Z" fill="#CFE4FF"/>
<path d="M192.012 442.727L201.686 440.447L199.089 429.41L189.415 431.69L192.012 442.727Z" fill="#CFE4FF"/>
<path d="M195.441 457.297L205.115 455.017L202.518 443.98L192.844 446.26L195.441 457.297Z" fill="#CFE4FF"/>
<path d="M198.871 471.866L208.545 469.586L205.948 458.55L196.274 460.829L198.871 471.866Z" fill="#CFE4FF"/>
<path d="M223.637 448.093C223.784 448.223 223.73 448.466 223.54 448.517C222.071 448.915 217.458 450.197 217.475 450.594C217.494 451.066 221.644 450.021 221.887 450.386C222.13 450.751 218.056 451.668 218.158 452.169C218.26 452.67 221.946 451.71 222.063 451.906C222.179 452.102 218.746 453.4 218.629 453.731C218.512 454.062 222.346 453.123 222.555 453.32C222.764 453.518 220.334 455.046 220.441 455.271C220.548 455.495 220.582 455.661 227.038 453.789L229.549 452.943L231.226 451.145L229.97 448.468C229.97 448.468 221.883 445.391 221.593 445.599C221.317 445.797 221.375 446.085 223.637 448.093Z" fill="#FFC0BB"/>
<path d="M249.245 471.444L281.828 558.369L289.808 557.717C289.808 557.717 279.874 478.023 273.929 470.445C267.985 462.867 254.957 464.497 254.957 464.497L249.245 471.444Z" fill="#282828"/>
<path d="M267.424 403.732C267.424 403.732 269.156 394.739 264.094 391.576C259.031 388.413 253.814 388.972 250.327 391.101C246.841 393.231 244.973 400.285 246.722 404.215L258.403 399.983L267.424 403.732Z" fill="#07085B"/>
<path d="M252.86 418.588C252.86 418.588 256.886 420.976 260.021 418.588L259.282 412.761L253.043 411.474L252.86 418.588Z" fill="#FFC0BB"/>
<path d="M252.946 415.275L253.043 411.474L259.372 413.444L259.55 414.869C258.146 415.379 255.476 415.999 252.946 415.275Z" fill="#FC8D84"/>
<path d="M248.73 403.547C249.09 404.644 248.648 405.759 247.743 406.038C246.838 406.317 245.813 405.655 245.454 404.558C245.094 403.461 245.536 402.346 246.441 402.067C247.346 401.788 248.371 402.451 248.73 403.547Z" fill="#F99893"/>
<path d="M248.536 409.785C248.301 409.306 248.11 408.803 247.967 408.28C247.554 406.873 247.408 405.402 247.385 404.127C247.38 403.853 247.359 403.581 247.332 403.308C247.225 402.209 247.323 401.058 247.683 399.895C248.84 396.154 252.465 393.545 256.494 393.564C261.921 393.59 266.044 398.061 265.625 403.166C266.223 402.902 266.872 402.88 267.418 403.168C268.466 403.722 268.736 405.2 268.022 406.47C267.307 407.74 265.88 408.32 264.832 407.767C264.686 407.69 264.557 407.594 264.442 407.484C263.63 411.793 259.684 414.866 255.286 414.458C253.135 414.258 251.255 413.26 249.899 411.781C249.807 411.694 249.711 411.593 249.612 411.476C249.176 410.964 248.824 410.391 248.536 409.785Z" fill="#FFC0BB"/>
<path d="M256.742 403.413C256.699 403.84 257.022 404.219 257.463 404.26C257.903 404.301 258.295 403.988 258.337 403.561C258.379 403.134 258.057 402.755 257.616 402.714C257.175 402.673 256.784 402.986 256.742 403.413Z" fill="#333333"/>
<path d="M250.45 403.107C250.408 403.534 250.731 403.913 251.171 403.954C251.612 403.995 252.003 403.682 252.046 403.255C252.088 402.828 251.765 402.448 251.325 402.407C250.884 402.366 250.493 402.68 250.45 403.107Z" fill="#333333"/>
<path d="M255.931 401.79C256.337 401.67 256.722 401.579 257.105 401.529C257.487 401.478 257.863 401.476 258.227 401.528C258.589 401.585 258.952 401.672 259.296 401.839L259.43 401.893C259.474 401.912 259.514 401.94 259.558 401.961L259.82 402.097C259.996 402.192 260.158 402.31 260.353 402.404C260.254 402.225 260.139 402.048 260.004 401.886C259.854 401.742 259.716 401.571 259.529 401.458C259.185 401.194 258.749 401.036 258.307 400.971C257.863 400.907 257.405 400.957 256.994 401.101C256.586 401.249 256.207 401.471 255.931 401.79Z" fill="#07085B"/>
<path d="M253.308 401.544C253.062 401.203 252.705 400.949 252.312 400.766C251.915 400.588 251.465 400.499 251.016 400.524C250.57 400.551 250.122 400.67 249.754 400.904C249.558 401 249.405 401.159 249.242 401.29C249.093 401.44 248.962 401.606 248.846 401.776C249.049 401.698 249.222 401.595 249.406 401.516L249.68 401.402C249.725 401.385 249.767 401.361 249.813 401.346L249.952 401.303C250.31 401.167 250.68 401.111 251.045 401.086C251.413 401.065 251.787 401.1 252.162 401.183C252.539 401.267 252.914 401.39 253.308 401.544Z" fill="#07085B"/>
<path d="M254.563 401.525C254.685 402.073 254.713 402.635 254.673 403.198C254.653 403.48 254.61 403.762 254.533 404.046C254.45 404.328 254.344 404.617 254.118 404.88L254.022 404.974L253.936 405.053C253.9 405.091 253.848 405.121 253.821 405.163C253.751 405.239 253.704 405.325 253.678 405.416C253.614 405.599 253.679 405.813 253.796 406.012C254.052 406.415 254.558 406.681 255.099 406.857C254.533 406.896 253.885 406.75 253.451 406.259C253.239 406.02 253.096 405.666 253.17 405.308C253.188 405.219 253.214 405.132 253.258 405.054C253.293 404.97 253.347 404.901 253.401 404.831C253.452 404.757 253.523 404.709 253.584 404.648C253.623 404.615 253.63 404.603 253.65 404.584L253.704 404.531C253.844 404.372 253.948 404.138 254.037 403.899C254.131 403.659 254.183 403.397 254.251 403.138C254.367 402.614 254.458 402.075 254.563 401.525Z" fill="#F99893"/>
<path d="M252.086 407.94C252.355 408.892 253.527 409.596 254.921 409.572C256.314 409.547 257.461 408.804 257.695 407.843L252.086 407.94Z" fill="white"/>
<path d="M265.391 403.445C265.916 402.954 266.334 402.972 266.334 402.972L265.976 400.099L265.013 398.397C265.013 398.397 261.324 393.861 261.195 393.75C261.068 393.638 258.332 392.232 258.165 392.16C257.997 392.089 254.27 392.802 254.27 392.802C254.27 392.802 247.624 391.711 248.871 395.118C250.118 398.525 255.003 400.145 255.244 399.982C254.432 399.24 254.266 397.046 254.266 397.046C257.82 400.613 264.372 403.076 265.391 403.445Z" fill="#07085B"/>
<path d="M228.655 445.184C231.844 445.946 239.349 445.567 245.035 445.12C245.081 440.414 245.261 436.035 245.674 432.961C247.139 422.042 252.196 418.509 252.196 418.509C257.236 419.109 260.738 416.419 260.738 416.419C267.496 416.501 271.405 420.168 271.405 420.168C281.788 429.131 273.929 447.466 273.929 447.466L276.779 471.69C270.346 473.89 244.045 472.568 244.045 472.568C244.045 472.568 245.331 464.853 245.142 457.002C236.807 456.534 228.655 455.207 228.655 455.207C228.329 453.414 228.655 445.184 228.655 445.184Z" fill="#02CCC0"/>
<path d="M263.37 428.86C263.387 432.487 261.8 435.98 259.293 438.474C258.04 439.729 256.585 440.775 255.015 441.605C253.446 442.434 251.79 443.118 250.067 443.59C249.853 443.653 249.642 443.728 249.426 443.783L248.775 443.943C248.34 444.047 247.908 444.163 247.471 444.257L246.152 444.505L245.492 444.629L244.826 444.721C243.938 444.848 243.052 444.983 242.155 445.047L240.814 445.172C240.366 445.206 239.917 445.223 239.468 445.249C235.876 445.435 232.266 445.366 228.655 445.184C232.239 445.65 235.861 445.913 239.49 445.82C243.113 445.722 246.764 445.334 250.274 444.293C252.031 443.795 253.737 443.091 255.347 442.212C256.948 441.32 258.452 440.22 259.704 438.867C260.341 438.202 260.894 437.461 261.392 436.689C261.87 435.904 262.282 435.081 262.609 434.225C262.917 433.362 263.148 432.475 263.284 431.574C263.421 430.676 263.472 429.76 263.37 428.86Z" fill="#CAF0FF"/>
<path d="M228.655 455.207C232.59 456.089 236.594 456.677 240.617 457.033C244.641 457.389 248.695 457.495 252.74 457.246C256.774 456.97 260.835 456.368 264.659 454.946C266.567 454.242 268.405 453.306 270.028 452.073C271.639 450.832 273.035 449.281 273.929 447.466C272.89 449.198 271.466 450.662 269.817 451.782C268.179 452.92 266.353 453.764 264.467 454.408C262.578 455.05 260.629 455.513 258.658 455.842C256.686 456.175 254.693 456.393 252.693 456.514C248.693 456.775 244.671 456.702 240.66 456.464C238.654 456.34 236.65 456.174 234.648 455.963C232.645 455.766 230.649 455.505 228.655 455.207Z" fill="#CAF0FF"/>
<path d="M339.548 205.275C339.548 205.275 345.218 201.078 357.203 202.822C369.187 204.566 370.959 211.251 370.899 220.582L369.951 228.206C369.951 228.206 366.45 227.981 363.115 218.43C363.115 218.43 355.745 225.694 352.882 224.525C350.019 223.356 354.518 218.059 354.518 218.059C354.518 218.059 342.349 229.772 334.257 229.085C334.257 229.085 328.572 213.802 335.003 209.053C335.003 209.053 330.457 208.903 330.291 207.962C330.125 207.022 332.635 205.843 336.945 206.722C336.945 206.722 334.346 200.197 336.131 199.688C337.916 199.179 339.548 205.275 339.548 205.275Z" fill="#333333"/>
<path d="M357.703 228.037C358.2 228.797 358.627 229.596 359.016 230.413C359.406 231.23 359.75 232.07 360.023 232.946C360.151 233.387 360.267 233.835 360.311 234.319C360.317 234.442 360.319 234.567 360.307 234.7C360.301 234.765 360.285 234.837 360.272 234.905C360.245 234.98 360.228 235.052 360.177 235.128C360.152 235.166 360.124 235.203 360.095 235.238L360.026 235.302C359.98 235.342 359.935 235.386 359.887 235.423C359.79 235.493 359.694 235.568 359.593 235.628C359.196 235.885 358.775 236.07 358.349 236.232C357.919 236.387 357.485 236.521 357.039 236.608C357.844 236.201 358.656 235.796 359.342 235.273C359.429 235.209 359.504 235.136 359.583 235.067L359.692 234.959L359.744 234.906C359.747 234.895 359.752 234.886 359.758 234.878C359.809 234.789 359.811 234.562 359.785 234.367C359.733 233.955 359.622 233.527 359.49 233.108C359.237 232.261 358.921 231.424 358.616 230.581C358.306 229.74 357.992 228.897 357.703 228.037Z" fill="#F99893"/>
<path d="M398.333 474.873C386.475 474.873 376.861 465.253 376.861 453.385V369.501H419.806V453.385C419.806 465.253 410.192 474.873 398.333 474.873Z" fill="#FEB546"/>
<path d="M486.522 540.609H296.055V567.536H486.522V540.609Z" fill="#E03268"/>
<path d="M347.468 540.609H296.055V567.536H347.468V540.609Z" fill="#C4205B"/>
<path d="M542.213 410.152C542.213 410.152 545.771 406.724 541.682 402.998C541.682 402.998 544.188 398.435 539.111 397.062C539.111 397.062 538.257 389.396 531.149 391.651C531.149 391.651 525.597 385.971 521.044 389.767C521.044 389.767 516.145 388.3 514.264 393.952C514.264 393.952 509.158 395.828 511.209 402.119C511.209 402.119 506.761 406.579 510.225 412.092C510.225 412.092 509.063 419.318 517.069 418.762C517.502 420.716 520.44 421.272 522.198 420.872C522.198 420.872 524.756 423.542 529.167 420.803C529.727 421.271 532.66 423.55 534.481 421.534C534.481 421.534 540.474 422.661 539.839 417.415C539.84 417.416 543.834 414.839 542.213 410.152Z" fill="#07085B"/>
<path d="M511.153 493.005L512.225 561.295L513.966 566.222L519.195 561.295L524.155 491.255L511.153 493.005Z" fill="#FFC0BB"/>
<path d="M542.375 495.316H529.292C529.292 495.316 535.45 560.887 535.405 561.294C535.361 561.702 537.612 564.648 537.612 564.648L542.375 561.294V495.316Z" fill="#FFC0BB"/>
<path d="M511.153 493.005L512.225 561.295L513.966 566.222L519.195 561.295L524.155 491.255L511.153 493.005Z" fill="#FFC0BB"/>
<path d="M542.375 495.316H529.292C529.292 495.316 535.45 560.887 535.405 561.294C535.361 561.702 537.612 564.648 537.612 564.648L542.375 561.294V495.316Z" fill="#FFC0BB"/>
<path d="M508.025 550.892C511.743 552.381 517.517 553.873 523.892 552.511L525.079 497.973L525.962 488.371C526.629 488.955 527.027 489.232 527.027 489.232L530.211 551.54C530.211 551.54 537.277 554.123 545.92 552.526C545.949 548.778 543.626 491.578 543.602 488.923C543.433 469.743 537.509 466.936 537.509 466.936L527.422 464.38L525.207 464.762C521.681 463.603 515.301 462.28 512.675 466.685C508.953 472.926 509.172 492.163 509.172 492.163C509.172 492.163 507.997 548.251 508.025 550.892Z" fill="#282828"/>
<path d="M515.958 447.437L506.499 443.055L507.359 453.08C507.359 453.08 489.447 444.943 488.543 444.123C488.241 443.85 487.897 443.134 487.567 442.296C487.219 441.415 486.985 440.497 486.777 439.575C486.462 438.184 485.273 437.069 484.872 436.706C484.698 436.549 484.195 435.601 484.075 435.166C483.994 434.872 483.557 434.896 483.511 435.197L483.415 435.823C483.321 436.438 483.535 437.074 483.673 437.413L483.424 437.318L483.011 441.534L483.517 445.221L486.351 447.356C486.351 447.356 511.307 465.333 513.589 462.985C516.041 460.462 515.958 447.437 515.958 447.437Z" fill="#FFC0BB"/>
<path d="M513.808 426.231C513.808 426.231 511.87 426.692 509.067 430.163C506.264 433.635 503.768 443.236 503.768 443.236L512.717 448.127L518.538 436.531L513.808 426.231Z" fill="#224887"/>
<path opacity="0.5" d="M539.16 481.586C538.217 481.935 537.286 482.311 536.365 482.71C535.445 483.11 534.535 483.533 533.633 483.968C532.73 484.403 531.834 484.852 530.946 485.315C530.06 485.782 529.172 486.248 528.301 486.738L528.231 486.571C528.89 486.43 529.551 486.335 530.217 486.265C530.884 486.198 531.553 486.171 532.222 486.171C532.891 486.169 533.561 486.206 534.224 486.286L534.72 486.351L535.214 486.439L535.46 486.484L535.703 486.542L536.188 486.66L535.698 486.565L535.453 486.517L535.206 486.482L534.712 486.412L534.215 486.364C534.05 486.346 533.884 486.338 533.718 486.33C533.552 486.323 533.386 486.308 533.22 486.305L532.722 486.295C532.556 486.292 532.389 486.299 532.223 486.3C531.559 486.313 530.896 486.361 530.236 486.433C529.578 486.506 528.918 486.606 528.276 486.749L527.681 486.88L528.206 486.581C529.079 486.084 529.959 485.604 530.854 485.148C531.747 484.69 532.648 484.247 533.557 483.818C534.467 483.393 535.391 482.994 536.321 482.611C536.789 482.425 537.256 482.24 537.731 482.073C538.202 481.895 538.682 481.742 539.16 481.586Z" fill="#F3FDFF"/>
<path opacity="0.5" d="M512.675 481.206C513.153 481.362 513.634 481.514 514.105 481.692C514.579 481.859 515.047 482.044 515.515 482.23C516.444 482.613 517.368 483.011 518.279 483.437C519.188 483.866 520.089 484.309 520.982 484.767C521.877 485.224 522.757 485.703 523.63 486.2L524.155 486.499L523.56 486.368C522.917 486.226 522.258 486.125 521.599 486.052C520.94 485.98 520.277 485.932 519.612 485.92C519.446 485.918 519.28 485.911 519.114 485.914L518.616 485.924C518.45 485.927 518.284 485.942 518.118 485.949C517.952 485.957 517.786 485.965 517.621 485.983L517.124 486.031L516.63 486.101L516.383 486.136L516.138 486.184L515.648 486.279L516.133 486.161L516.376 486.103L516.622 486.058L517.115 485.971L517.612 485.905C518.275 485.825 518.944 485.788 519.614 485.79C520.283 485.79 520.952 485.818 521.618 485.885C522.285 485.954 522.945 486.049 523.605 486.19L523.535 486.357C522.664 485.867 521.776 485.401 520.89 484.935C520.002 484.471 519.106 484.022 518.203 483.588C517.3 483.152 516.391 482.73 515.471 482.329C514.55 481.931 513.619 481.555 512.675 481.206Z" fill="#F3FDFF"/>
<path opacity="0.5" d="M514.687 470.129C515.506 470.273 516.329 470.39 517.154 470.497C517.978 470.604 518.805 470.698 519.632 470.777C521.287 470.937 522.948 471.043 524.61 471.078C525.441 471.095 526.273 471.096 527.103 471.076C527.934 471.053 528.764 471.008 529.593 470.941C530.421 470.869 531.246 470.774 532.067 470.642C532.886 470.508 533.701 470.341 534.504 470.129C533.705 470.357 532.893 470.54 532.075 470.689C531.255 470.831 530.428 470.935 529.599 471.016C528.77 471.095 527.938 471.137 527.106 471.166C526.273 471.189 525.44 471.191 524.607 471.175C522.943 471.132 521.279 471.028 519.624 470.851C518.796 470.763 517.97 470.661 517.147 470.544C516.324 470.422 515.503 470.289 514.687 470.129Z" fill="#DAEEF7"/>
<path d="M533.421 473.222C533.455 473.319 533.507 473.409 533.554 473.5L533.697 473.774L533.988 474.32L534.473 475.223L535.856 477.626C536.046 477.991 537.862 481.152 538.292 481.859C537.758 481.221 537.113 480.589 536.677 479.886C536.458 479.534 536.254 479.175 536.046 478.817C535.843 478.457 535.648 478.093 535.452 477.73C535.068 476.998 534.698 476.261 534.354 475.511C534.18 475.137 534.014 474.76 533.853 474.381C533.774 474.19 533.695 474 533.62 473.807C533.549 473.615 533.468 473.423 533.421 473.222Z" fill="#F3FDFF"/>
<path d="M551.028 437.406C546.959 432.495 542.26 427.163 538.149 425.088C536.576 424.293 532.845 424.136 530.675 423.78C530.675 423.78 525.015 423.081 519.435 423.82C516.424 424.923 511.165 426.789 511.096 428.575C510.752 437.491 510.652 444.326 510.7 449.567C510.7 449.583 510.551 468.567 510.689 472.621C510.689 472.621 531.313 477.07 541.862 474.396C541.862 474.396 543.604 449.565 541.102 442.86L542.168 444.218C542.169 444.218 546.413 443.252 551.028 437.406Z" fill="#3660AC"/>
<path d="M550.406 438.179C547.608 441.584 544.511 443.391 542.96 443.961L552.934 455.915L534.689 475.599L537.9 481.197C540.437 479.965 541.009 475.294 541.009 475.294C541.009 475.294 563.589 460.186 563.589 456.572C563.589 451.731 550.406 438.179 550.406 438.179Z" fill="#FFC0BB"/>
<path d="M550.566 437.942C550.409 438.118 550.268 438.306 550.104 438.475L549.621 438.989L549.381 439.247L549.127 439.491L548.621 439.979C548.45 440.14 548.27 440.29 548.095 440.446C547.751 440.764 547.367 441.037 547.007 441.334C546.256 441.895 545.467 442.401 544.647 442.848L544.338 443.012C544.234 443.066 544.128 443.114 544.023 443.165C543.814 443.269 543.6 443.361 543.386 443.453C543.28 443.5 543.171 443.54 543.063 443.582C542.955 443.625 542.847 443.669 542.738 443.705C542.59 443.759 542.435 443.81 542.287 443.854L541.196 442.547L539.955 441.089C539.132 440.113 538.288 439.154 537.453 438.189C536.608 437.23 535.763 436.272 534.905 435.325C534.046 434.378 533.183 433.434 532.295 432.51C533.053 433.538 533.836 434.545 534.622 435.55C535.41 436.554 536.21 437.547 537.011 438.54C537.821 439.526 538.623 440.518 539.446 441.494L540.673 442.963L541.915 444.42L542.051 444.58L542.246 444.529C542.507 444.46 542.731 444.383 542.965 444.297C543.197 444.212 543.424 444.119 543.646 444.017C543.868 443.916 544.089 443.813 544.304 443.699C544.411 443.643 544.521 443.589 544.627 443.531L544.943 443.351C545.786 442.871 546.569 442.302 547.311 441.695L547.848 441.218C548.03 441.062 548.198 440.892 548.366 440.723C548.533 440.553 548.706 440.389 548.869 440.215L549.341 439.681L549.576 439.414L549.796 439.134L550.231 438.574C550.512 438.194 550.765 437.795 551.028 437.407L550.566 437.942Z" fill="#FBF9EB"/>
<path d="M521.569 423.618C521.569 423.618 525.664 426.046 528.854 423.618L528.102 417.689L521.754 416.38L521.569 423.618Z" fill="#FFC0BB"/>
<path d="M521.655 420.247L521.755 416.38L528.194 418.384L528.375 419.834C526.946 420.352 524.231 420.983 521.655 420.247Z" fill="#FC8D84"/>
<path d="M517.027 406.719C517.199 407.881 516.564 408.923 515.609 409.047C514.653 409.171 513.739 408.33 513.567 407.169C513.395 406.008 514.03 404.965 514.985 404.841C515.941 404.717 516.855 405.558 517.027 406.719Z" fill="#F99893"/>
<path d="M515.759 412.941C515.606 412.42 515.501 411.882 515.448 411.334C515.275 409.852 515.382 408.352 515.578 407.069C515.62 406.794 515.645 406.517 515.666 406.239C515.747 405.117 516.043 403.981 516.604 402.877C518.408 399.324 522.491 397.332 526.528 398.045C531.966 399.005 535.331 404.198 534.034 409.246C534.679 409.084 535.333 409.174 535.832 409.557C536.787 410.292 536.804 411.821 535.869 412.972C534.935 414.122 533.403 414.458 532.448 413.723C532.315 413.621 532.202 413.502 532.106 413.373C530.55 417.554 526.065 419.955 521.725 418.789C519.603 418.219 517.888 416.894 516.783 415.178C516.706 415.075 516.628 414.957 516.548 414.823C516.199 414.233 515.944 413.598 515.759 412.941Z" fill="#FFC0BB"/>
<path d="M525.706 407.961C525.59 408.382 525.849 408.818 526.284 408.935C526.719 409.052 527.165 408.805 527.281 408.384C527.397 407.963 527.138 407.527 526.703 407.41C526.269 407.293 525.822 407.54 525.706 407.961Z" fill="#333333"/>
<path d="M518.827 406.574C518.711 406.995 518.97 407.431 519.404 407.548C519.84 407.665 520.286 407.418 520.402 406.997C520.518 406.576 520.259 406.14 519.824 406.023C519.39 405.906 518.943 406.153 518.827 406.574Z" fill="#333333"/>
<path d="M525.172 406.194C525.6 406.144 526.002 406.119 526.394 406.135C526.786 406.15 527.163 406.212 527.519 406.327C527.872 406.446 528.222 406.596 528.538 406.823L528.663 406.9C528.704 406.927 528.739 406.962 528.78 406.99L529.019 407.173C529.179 407.298 529.321 407.443 529.501 407.572C529.432 407.375 529.347 407.178 529.24 406.992C529.114 406.821 529.005 406.626 528.838 406.481C528.537 406.156 528.128 405.923 527.696 405.782C527.261 405.642 526.794 405.613 526.357 405.686C525.922 405.765 525.504 405.922 525.172 406.194Z" fill="#07085B"/>
<path d="M521.961 405.499C521.773 405.115 521.459 404.798 521.096 404.547C520.73 404.3 520.292 404.133 519.838 404.081C519.387 404.031 518.916 404.074 518.507 404.245C518.294 404.308 518.113 404.44 517.927 404.544C517.751 404.668 517.592 404.812 517.446 404.963C517.663 404.92 517.854 404.846 518.052 404.799L518.347 404.732C518.396 404.723 518.441 404.706 518.49 404.699L518.636 404.68C519.019 404.604 519.399 404.612 519.77 404.65C520.143 404.692 520.512 404.791 520.874 404.94C521.238 405.088 521.593 405.277 521.961 405.499Z" fill="#07085B"/>
<path d="M523.223 405.696C523.251 406.267 523.183 406.834 523.046 407.392C522.977 407.672 522.885 407.946 522.759 408.219C522.628 408.487 522.472 408.758 522.201 408.984L522.088 409.061L521.988 409.126C521.945 409.158 521.888 409.179 521.854 409.217C521.771 409.281 521.709 409.359 521.667 409.446C521.571 409.618 521.599 409.844 521.682 410.064C521.87 410.512 522.332 410.866 522.844 411.136C522.27 411.077 521.645 410.82 521.294 410.252C521.122 409.977 521.041 409.597 521.177 409.25C521.21 409.164 521.251 409.082 521.308 409.01C521.358 408.932 521.424 408.872 521.49 408.811C521.554 408.746 521.633 408.71 521.704 408.66C521.749 408.633 521.758 408.622 521.782 408.606L521.844 408.563C522.013 408.428 522.158 408.211 522.287 407.987C522.423 407.762 522.52 407.509 522.632 407.26C522.839 406.754 523.023 406.229 523.223 405.696Z" fill="#F99893"/>
<path d="M519.636 411.702C519.742 412.703 520.797 413.611 522.199 413.826C523.6 414.042 524.878 413.493 525.277 412.57L519.636 411.702Z" fill="white"/>
<path d="M480.273 381.426L486.622 524.231L487.904 524.196L481.556 381.418L480.273 381.426Z" fill="#F3FDFF"/>
<path d="M480.964 441.225C480.951 441.023 481.009 440.38 481.038 440.242C481.118 439.858 481.408 439.549 481.793 439.433L482.23 439.3L482.27 440.285C482.233 441.036 482.218 440.983 483.26 441.436C484.744 442.081 484.123 442.86 484.123 442.86C484.123 442.86 483.711 443.413 481.895 442.504C481.895 442.504 481.021 442.046 480.964 441.225Z" fill="#FFC0BB"/>
<path d="M480.81 442.069C480.796 441.876 480.852 441.264 480.879 441.133C480.955 440.768 481.232 440.473 481.598 440.362L482.015 440.236L482.052 441.173C482.017 441.888 482.003 441.839 482.994 442.27C484.408 442.884 483.816 443.625 483.816 443.625C483.816 443.625 483.424 444.151 481.695 443.286C481.695 443.286 480.864 442.85 480.81 442.069Z" fill="#FFC0BB"/>
<path d="M481.038 443.193C481.026 443.03 481.074 442.512 481.097 442.4C481.161 442.091 481.395 441.843 481.705 441.749L482.057 441.642L482.088 442.435C482.059 443.04 482.047 442.998 482.886 443.362C484.082 443.882 483.581 444.509 483.581 444.509C483.581 444.509 483.249 444.955 481.786 444.223C481.786 444.223 481.084 443.854 481.038 443.193Z" fill="#FFC0BB"/>
<path d="M481.287 440.015C481.273 439.812 481.331 439.17 481.36 439.032C481.44 438.648 481.731 438.339 482.115 438.223L482.553 438.09L482.592 439.075C482.555 439.826 482.54 439.773 483.582 440.226C485.067 440.871 484.445 441.65 484.445 441.65C484.445 441.65 484.033 442.202 482.217 441.294C482.216 441.294 481.344 440.836 481.287 440.015Z" fill="#FFC0BB"/>
<path d="M482.592 439.075C482.595 439.24 482.585 439.409 482.616 439.567C482.645 439.73 482.788 439.825 482.939 439.893C483.241 440.038 483.563 440.144 483.876 440.298C483.951 440.341 484.028 440.382 484.102 440.428C484.171 440.482 484.248 440.526 484.31 440.59C484.444 440.704 484.556 440.854 484.614 441.027C484.676 441.202 484.659 441.399 484.585 441.566C484.566 441.609 484.545 441.648 484.516 441.689C484.477 441.741 484.436 441.764 484.393 441.791C484.307 441.841 484.215 441.863 484.124 441.881C483.942 441.907 483.761 441.897 483.588 441.866C483.413 441.838 483.246 441.789 483.081 441.737C482.752 441.624 482.442 441.488 482.135 441.32C481.843 441.131 481.588 440.886 481.422 440.584C481.343 440.432 481.292 440.267 481.276 440.099C481.262 440.014 481.276 439.931 481.28 439.848L481.3 439.599L481.305 439.847C481.308 439.93 481.3 440.013 481.32 440.093C481.348 440.253 481.409 440.406 481.495 440.545C481.665 440.822 481.92 441.047 482.203 441.212C482.5 441.353 482.812 441.495 483.129 441.595C483.446 441.692 483.784 441.767 484.096 441.719C484.172 441.706 484.249 441.688 484.311 441.652C484.34 441.635 484.373 441.613 484.384 441.597C484.404 441.57 484.422 441.536 484.438 441.503C484.5 441.367 484.516 441.213 484.468 441.071C484.423 440.929 484.331 440.798 484.21 440.692C484.157 440.633 484.083 440.592 484.022 440.54C483.955 440.493 483.883 440.452 483.814 440.407C483.524 440.247 483.202 440.126 482.9 439.963C482.825 439.92 482.75 439.873 482.687 439.809C482.623 439.746 482.584 439.659 482.572 439.574C482.551 439.404 482.577 439.24 482.592 439.075Z" fill="#F99893"/>
<path d="M483.891 441.807C484.097 441.958 484.278 442.182 484.293 442.458C484.297 442.593 484.262 442.728 484.194 442.848C484.18 442.876 484.151 442.914 484.121 442.936C484.092 442.96 484.062 442.98 484.03 442.996C483.966 443.03 483.898 443.05 483.83 443.066C483.555 443.123 483.28 443.084 483.02 443.025C482.76 442.96 482.509 442.871 482.267 442.767C482.144 442.718 482.028 442.655 481.908 442.6C481.783 442.541 481.674 442.462 481.569 442.379C481.364 442.21 481.177 442.009 481.059 441.768C480.997 441.65 480.96 441.521 480.933 441.391C480.927 441.326 480.914 441.26 480.917 441.194L480.925 441C480.951 440.745 480.979 440.491 481.037 440.242C481.017 440.495 481.006 440.75 481.008 441.003L481.012 441.19C481.013 441.252 481.029 441.311 481.038 441.372C481.07 441.489 481.11 441.605 481.175 441.71C481.298 441.922 481.471 442.107 481.669 442.259C481.769 442.333 481.872 442.408 481.984 442.458C482.101 442.51 482.215 442.57 482.335 442.617C482.57 442.722 482.813 442.808 483.059 442.875C483.304 442.941 483.561 442.976 483.804 442.944C483.92 442.923 484.048 442.882 484.102 442.795C484.167 442.696 484.204 442.578 484.21 442.458C484.215 442.338 484.183 442.217 484.125 442.107C484.066 441.996 483.98 441.9 483.891 441.807Z" fill="#F99893"/>
<path d="M483.893 443.01C483.981 443.174 483.98 443.381 483.904 443.559C483.884 443.601 483.863 443.65 483.818 443.688C483.778 443.724 483.733 443.748 483.688 443.77C483.594 443.814 483.495 443.83 483.397 443.843C482.999 443.876 482.621 443.76 482.265 443.63C482.09 443.559 481.915 443.483 481.747 443.397C481.57 443.314 481.414 443.195 481.278 443.062C481.142 442.928 481.022 442.777 480.935 442.609C480.854 442.439 480.804 442.253 480.81 442.069C480.869 442.434 481.091 442.74 481.366 442.97C481.507 443.082 481.652 443.191 481.819 443.259C481.986 443.338 482.156 443.411 482.328 443.478C482.5 443.543 482.674 443.604 482.852 443.646C483.028 443.694 483.21 443.718 483.388 443.717C483.476 443.712 483.566 443.705 483.646 443.675C483.686 443.66 483.725 443.642 483.756 443.618C483.787 443.599 483.807 443.561 483.83 443.523C483.922 443.375 483.944 443.186 483.893 443.01Z" fill="#F99893"/>
<path d="M483.506 443.768C483.631 443.88 483.724 444.041 483.725 444.221C483.726 444.311 483.703 444.399 483.664 444.481C483.654 444.502 483.644 444.522 483.629 444.543C483.608 444.568 483.59 444.583 483.57 444.598C483.53 444.628 483.486 444.648 483.442 444.665C483.263 444.729 483.077 444.721 482.902 444.7C482.727 444.675 482.557 444.629 482.393 444.572C482.23 444.514 482.071 444.447 481.917 444.371C481.842 444.33 481.761 444.299 481.685 444.247C481.611 444.199 481.542 444.145 481.478 444.086C481.22 443.858 481.026 443.531 481.038 443.193C481.094 443.525 481.311 443.79 481.564 443.989C481.629 444.039 481.696 444.085 481.765 444.126C481.831 444.167 481.911 444.195 481.987 444.231C482.138 444.3 482.293 444.364 482.451 444.417C482.606 444.474 482.766 444.519 482.927 444.546C483.086 444.575 483.252 444.583 483.399 444.544C483.435 444.534 483.47 444.52 483.5 444.502C483.514 444.494 483.529 444.481 483.536 444.475C483.546 444.462 483.557 444.446 483.567 444.431C483.607 444.367 483.635 444.293 483.643 444.217C483.654 444.141 483.646 444.061 483.621 443.985C483.596 443.908 483.553 443.837 483.506 443.768Z" fill="#F99893"/>
<path d="M482.361 419.874C496.265 419.874 507.537 407.311 507.537 391.814C507.537 376.317 496.265 363.755 482.361 363.755C468.457 363.755 457.185 376.317 457.185 391.814C457.185 407.311 468.457 419.874 482.361 419.874Z" fill="#FF5B7E"/>
<path d="M482.361 417.53C495.104 417.53 505.434 406.017 505.434 391.814C505.434 377.612 495.104 366.099 482.361 366.099C469.619 366.099 459.289 377.612 459.289 391.814C459.289 406.017 469.619 417.53 482.361 417.53Z" fill="#CCF6FE"/>
<path d="M485.594 410.588H479.594V417.264H485.594V410.588Z" fill="#FFC0BB"/>
<path d="M485.594 414.59V410.588H479.595V413.993C480.886 414.765 482.799 415.21 485.594 414.59Z" fill="#F99893"/>
<path d="M495.054 398.638C494.428 398.294 493.701 398.356 493.044 398.727C493.27 392.139 488.442 386.598 482.361 386.832C476.28 386.598 471.453 392.139 471.678 398.727C471.021 398.356 470.294 398.294 469.668 398.638C468.467 399.297 468.094 401.186 468.834 402.857C469.575 404.527 471.149 405.347 472.35 404.688C472.517 404.596 472.666 404.479 472.8 404.344C473.488 409.79 477.571 413.873 482.361 413.797C487.151 413.873 491.234 409.79 491.922 404.344C492.056 404.479 492.205 404.596 492.372 404.688C493.573 405.347 495.147 404.527 495.887 402.857C496.628 401.186 496.255 399.297 495.054 398.638Z" fill="#FFC0BB"/>
<path d="M475.056 384.222C475.056 384.222 478.066 381.382 484.91 381.841C491.753 382.299 493.056 386.28 493.444 391.963L493.044 398.726C493.044 398.726 491.267 396.691 488.953 391.044C488.953 391.044 485.121 395.837 483.452 395.269C481.783 394.701 484.084 391.251 484.084 391.251C484.084 391.251 476.277 398.738 471.679 398.726C471.679 398.726 469.245 389.964 472.661 386.75C472.661 386.75 470.088 386.887 469.952 386.323C469.816 385.759 471.179 384.915 473.652 385.234C473.652 385.234 471.89 381.393 472.874 380.993C473.859 380.594 475.056 384.222 475.056 384.222Z" fill="#333333"/>
<path d="M486.287 406.419C486.023 407.74 484.666 408.778 483.004 408.834C481.341 408.891 479.93 407.947 479.594 406.647L486.287 406.419Z" fill="white"/>
<path d="M481.771 416.762C481.757 416.762 479.594 417.264 479.594 417.264V417.345C480.502 417.466 481.425 417.53 482.361 417.53C483.458 417.53 484.538 417.442 485.594 417.277V417.264L485.249 416.963C485.249 416.963 481.785 416.762 481.771 416.762Z" fill="#FFC0BB"/>
<path d="M472.014 378.942L469.489 372.785L470.505 372.76L471.771 375.962C472.24 377.152 472.431 377.72 472.541 378.077L472.557 378.077C472.637 377.759 472.837 377.186 473.222 376.007L474.404 372.662L475.39 372.637L473.077 378.916L472.014 378.942Z" fill="#07085B"/>
<path d="M481.706 375.571C481.741 377.32 480.714 378.857 478.805 378.905C476.986 378.95 475.843 377.539 475.807 375.717C475.772 373.996 476.892 372.469 478.707 372.423C480.528 372.378 481.672 373.852 481.706 375.571ZM476.782 375.671C476.809 376.969 477.517 378.095 478.828 378.062C480.135 378.029 480.757 376.882 480.731 375.612C480.706 374.369 480.013 373.233 478.68 373.266C477.431 373.298 476.757 374.42 476.782 375.671Z" fill="#07085B"/>
<path d="M484.204 373.271L482.117 373.323L482.099 372.469L487.198 372.342L487.215 373.195L485.131 373.248L485.239 378.611L484.312 378.634L484.204 373.271Z" fill="#07085B"/>
<path d="M492.395 375.601L489.104 375.683L489.144 377.66L492.781 377.569L492.68 378.425L488.239 378.536L488.114 372.319L492.5 372.209L492.518 373.062L489.053 373.149L489.087 374.83L492.378 374.748L492.395 375.601Z" fill="#07085B"/>
<path d="M534.304 398.261L534.555 403.978L521.197 400.757C521.197 400.757 519.736 402.059 519.515 402.032C519.294 402.005 517.596 401.284 517.662 401.041C517.728 400.798 522.361 394.638 522.361 394.638C522.361 394.638 526.789 395.64 527.184 395.747C527.579 395.854 534.304 398.261 534.304 398.261Z" fill="#07085B"/>
<path d="M534.311 407.21C534.311 407.21 527.531 401.213 516.255 403.654C516.255 403.654 516.243 403.608 516.227 403.526C515.912 401.895 516.932 400.312 518.533 399.876C521.113 399.174 526.721 398.614 533.978 403.52C535.173 404.328 535.408 406.034 534.427 407.091C534.39 407.131 534.351 407.171 534.311 407.21Z" fill="#FF5B7E"/>
<path d="M606.705 420.858L600.808 421.641L602.702 435.933L608.599 435.15L606.705 420.858Z" fill="#FFC0BB"/>
<path d="M614.361 407.344C613.706 407.122 613 407.271 612.398 407.683C611.851 401.85 606.466 397.596 600.526 398.595C594.531 399.18 590.441 404.692 591.432 410.466C590.743 410.226 590.023 410.266 589.449 410.65C588.347 411.388 588.202 413.101 589.123 414.476C590.045 415.851 591.686 416.369 592.787 415.632C592.94 415.529 593.073 415.406 593.189 415.27C594.5 419.979 598.983 423.044 603.675 422.353C608.385 421.796 611.915 417.667 611.954 412.779C612.102 412.88 612.262 412.964 612.436 413.023C613.692 413.448 615.14 412.52 615.672 410.952C616.203 409.384 615.616 407.768 614.361 407.344Z" fill="#FFC0BB"/>
<path d="M599.539 411.489C599.63 411.972 599.313 412.437 598.829 412.528C598.346 412.619 597.881 412.302 597.79 411.819C597.698 411.337 598.017 410.871 598.499 410.78C598.983 410.689 599.448 411.006 599.539 411.489Z" fill="#333333"/>
<path d="M607.146 410.563C607.237 411.045 606.919 411.511 606.436 411.602C605.952 411.693 605.487 411.375 605.396 410.893C605.305 410.41 605.623 409.945 606.106 409.854C606.589 409.762 607.054 410.08 607.146 410.563Z" fill="#333333"/>
<path d="M600.268 409.556C599.807 409.462 599.371 409.397 598.942 409.379C598.514 409.36 598.099 409.395 597.701 409.492C597.307 409.593 596.914 409.729 596.551 409.954L596.409 410.029C596.362 410.055 596.321 410.091 596.274 410.119L595.998 410.301C595.813 410.427 595.646 410.578 595.439 410.705C595.531 410.49 595.64 410.277 595.771 410.078C595.923 409.898 596.057 409.689 596.252 409.541C596.606 409.204 597.072 408.981 597.554 408.861C598.039 408.744 598.551 408.754 599.02 408.877C599.487 409.005 599.929 409.22 600.268 409.556Z" fill="#333333"/>
<path d="M603.823 409.071C604.059 408.657 604.427 408.33 604.843 408.082C605.263 407.838 605.753 407.691 606.252 407.674C606.748 407.659 607.257 407.75 607.688 407.98C607.915 408.07 608.101 408.235 608.295 408.368C608.475 408.524 608.637 408.7 608.783 408.883C608.55 408.815 608.348 408.715 608.137 408.644L607.822 408.542C607.769 408.527 607.721 408.504 607.668 408.492L607.511 408.457C607.1 408.338 606.686 408.312 606.279 408.321C605.87 408.334 605.46 408.411 605.054 408.544C604.645 408.677 604.242 408.856 603.823 409.071Z" fill="#333333"/>
<path d="M611.812 396.183C609.66 392.743 601.92 390.888 597.288 392.154C597.288 392.154 597.429 393.351 597.905 393.962C597.35 393.417 595.222 391.814 590.65 393.552C590.65 393.552 591.49 395.012 591.916 395.55C591.916 395.55 590.266 395.76 588.837 395.288C588.837 395.288 587.68 398.015 589.168 400.306L587.486 399.879C587.486 399.879 588.74 405.363 589.839 408.68C590.042 409.702 590.22 410.346 590.22 410.346C590.306 410.337 591.219 410.083 592.648 411.188C592.724 411.135 592.805 411.08 592.895 411.018C593.878 410.345 593.46 405.562 594.881 403.431C597.605 401.826 603.95 400.775 606.299 401.205C609.039 401.707 609.966 408.116 611.283 408.578C611.386 408.614 611.478 408.646 611.566 408.677C612.4 407.172 613.605 407.256 613.69 407.242C613.69 407.242 613.964 399.622 611.812 396.183Z" fill="#040744"/>
<path d="M602.039 408.535C602.406 408.983 602.732 409.461 603.035 409.953C603.339 410.445 603.615 410.954 603.849 411.492C603.961 411.763 604.065 412.039 604.126 412.343C604.139 412.421 604.148 412.5 604.15 412.585C604.151 412.627 604.145 412.674 604.142 412.717C604.13 412.767 604.124 412.814 604.097 412.865C604.083 412.891 604.068 412.917 604.053 412.941L604.013 412.986C603.987 413.015 603.962 413.046 603.934 413.072C603.877 413.124 603.821 413.178 603.761 413.223C603.527 413.413 603.272 413.56 603.013 413.692C602.751 413.821 602.485 413.936 602.208 414.022C602.691 413.708 603.178 413.395 603.578 413.016C603.629 412.97 603.672 412.918 603.718 412.869L603.779 412.793L603.809 412.755C603.81 412.748 603.812 412.742 603.815 412.736C603.842 412.676 603.827 412.532 603.797 412.41C603.736 412.152 603.636 411.888 603.523 411.63C603.305 411.11 603.046 410.6 602.795 410.087C602.54 409.574 602.282 409.061 602.039 408.535Z" fill="#F99893"/>
<path d="M605.638 415.679C605.541 416.588 604.605 417.4 603.365 417.578C602.126 417.756 601 417.241 600.65 416.397L605.638 415.679Z" fill="white"/>
<path d="M596.956 425.446L611.464 423.521L608.39 430.516C608.39 430.516 601.927 431.675 601.289 431.458C600.652 431.241 596.956 425.446 596.956 425.446Z" fill="#FFC0BB"/>
<path d="M593.362 470.422C593.362 470.422 586.945 527.688 587.986 547.644L599.319 548.996L611.122 482.743L612.615 482.801L620.218 549.437H630.507C630.507 549.437 632.205 482.916 626.656 464.175C621.107 445.433 593.362 470.422 593.362 470.422Z" fill="#282828"/>
<path d="M597.351 551.912L597.116 560.207L591.614 564.199C591.614 564.199 589.526 560.215 589.577 559.73C589.629 559.244 589.575 549.732 589.575 549.732L597.351 551.912Z" fill="#FFC0BB"/>
<path d="M622.132 551.912L622.366 560.207L627.868 564.199C627.868 564.199 629.669 560.215 629.617 559.73C629.566 559.244 629.907 549.732 629.907 549.732L622.132 551.912Z" fill="#FFC0BB"/>
<path d="M587.66 546.9L599.584 548.322C599.913 548.361 600.14 548.671 600.078 548.997L599.271 553.204C599.214 553.502 598.933 553.704 598.632 553.662L587.465 552.118C587.179 552.079 586.968 551.833 586.972 551.545L587.022 547.461C587.026 547.121 587.324 546.859 587.66 546.9Z" fill="#444444"/>
<path d="M580.568 436.823L584.25 426.024L581.188 425.339C574.701 425.143 568.581 422.111 567.593 421.081C565.495 418.895 572.897 404.265 572.897 404.265L567.169 403.106C567.169 403.106 553.994 420.776 559.615 426.813C565.236 432.851 579.001 436.678 579.001 436.678L580.568 436.823Z" fill="#FFC0BB"/>
<path d="M630.221 430.233L623.853 420.768L626.63 419.308C632.842 417.426 637.961 412.903 638.647 411.65C640.102 408.993 629.146 396.799 629.146 396.799L634.374 394.186C634.374 394.186 651.696 407.807 647.842 415.103C643.988 422.399 631.697 429.684 631.697 429.684L630.221 430.233Z" fill="#FFC0BB"/>
<path d="M631.508 547.218L619.584 548.64C619.256 548.679 619.029 548.989 619.091 549.315L619.898 553.522C619.955 553.821 620.236 554.022 620.537 553.98L631.704 552.436C631.99 552.397 632.201 552.151 632.197 551.863L632.146 547.779C632.142 547.439 631.845 547.178 631.508 547.218Z" fill="#444444"/>
<path d="M632.839 430.135L626.713 418.586C622.949 420.296 617.064 421.833 614.055 422.562C612.809 422.863 611.618 423.367 610.53 424.046C610.489 424.071 610.449 424.096 610.409 424.121C606.735 426.401 602.271 426.994 598.13 425.751C598.085 425.737 598.039 425.723 597.993 425.71C596.766 425.338 595.485 425.162 594.204 425.196C591.109 425.278 585.027 425.329 580.948 424.66L578.043 437.408C584.287 438.746 589.934 438.468 589.934 438.468L591.784 475.159C604.434 476.325 617.185 474.656 629.11 470.274L629.406 470.165L621.634 434.261C621.634 434.261 627.159 433.055 632.839 430.135Z" fill="#FEB546"/>
<path d="M643.797 392.944L555.092 404.718C553.259 404.961 551.576 403.671 551.333 401.837L545.082 354.679C544.839 352.845 546.128 351.161 547.961 350.918L636.666 339.144C638.499 338.9 640.182 340.19 640.425 342.024L646.676 389.182C646.919 391.016 645.63 392.701 643.797 392.944Z" fill="white"/>
<path d="M573.387 402.28C573.387 402.28 575.033 401.625 575.078 400.262C575.123 398.9 576.036 399.532 576.114 400.125C576.193 400.717 577.153 403.418 572.897 404.265C568.64 405.112 567.169 403.105 567.169 403.105L573.387 402.28Z" fill="#FFC0BB"/>
<path d="M628.155 395.011C628.155 395.011 626.396 394.808 625.997 393.504C625.598 392.2 624.882 393.049 624.96 393.641C625.039 394.234 624.815 397.091 629.145 396.799C633.475 396.506 634.373 394.186 634.373 394.186L628.155 395.011Z" fill="#FFC0BB"/>
<path d="M635.152 348.777L552.179 359.791L552.601 362.976L635.575 351.962L635.152 348.777Z" fill="#CFE4FF"/>
<path d="M636.446 358.536L553.472 369.55L553.894 372.736L636.868 361.721L636.446 358.536Z" fill="#CFE4FF"/>
<path d="M637.74 368.295L554.766 379.31L555.188 382.495L638.162 371.481L637.74 368.295Z" fill="#CFE4FF"/>
<path d="M625.664 379.831L569.428 387.296L569.85 390.482L626.086 383.016L625.664 379.831Z" fill="#CFE4FF"/>
<path d="M705.666 573.964H63.4706C61.6241 573.964 60.1272 572.466 60.1272 570.619C60.1272 568.77 61.6241 567.272 63.4706 567.272H705.666C707.512 567.272 709.009 568.77 709.009 570.619C709.009 572.466 707.512 573.964 705.666 573.964Z" fill="#06052D"/>
<path d="M161.909 415.888L162.205 420.105C162.205 420.105 168.825 421.971 168.96 421.917C169.095 421.863 170.557 421.001 170.557 421.001L170.382 419.154C170.382 419.154 170.304 417.408 170.399 417.016C170.494 416.623 163.015 415.103 163.015 415.103L161.909 415.888Z" fill="#FFC0BB"/>
<path d="M171.126 421.2C171.126 421.2 189.248 426.484 197.377 442.831C198.164 444.414 197.963 446.313 196.842 447.681C194.375 450.692 188.887 455.948 178.602 459.542C178.602 459.542 176.676 458.899 176.435 456.41C176.435 456.41 186.226 447.496 188.713 445.408L174.991 434.647L171.126 421.2Z" fill="#EF9D30"/>
<path d="M175.812 458.347L178.991 456.203L180.564 458.815C180.564 458.815 178.369 466.967 178.147 469.224C178.147 469.224 177.347 469.477 177.235 469.012C177.124 468.546 175.812 458.347 175.812 458.347Z" fill="#FFC0BB"/>
<path d="M155.94 405.697C155.94 405.697 153.886 397.264 158.778 394.106C163.67 390.948 168.855 391.299 172.386 393.191C175.918 395.084 178.032 401.681 176.449 405.451L164.727 401.851L155.94 405.697Z" fill="#07085B"/>
<path d="M175.541 561.844L173.432 554.696L180.279 553.969L180.696 554.439L181.844 560.889L178.609 564.152L175.541 561.844Z" fill="#FFC0BB"/>
<path d="M132.681 552.944L136.24 546.397L141.596 550.728L141.558 551.355L137.812 556.728L133.219 556.747L132.681 552.944Z" fill="#FFC0BB"/>
<path d="M125.278 406.391C125.185 406.553 124.95 406.549 124.865 406.383C124.211 405.096 122.127 401.058 121.762 401.149C121.328 401.259 123.102 404.912 122.811 405.209C122.519 405.506 120.878 401.899 120.433 402.091C119.987 402.282 121.594 405.522 121.434 405.668C121.275 405.814 119.404 402.876 119.075 402.831C118.745 402.787 120.361 406.167 120.217 406.4C120.074 406.632 118.184 404.671 117.997 404.814C117.81 404.956 117.662 405.02 120.652 410.657L121.924 412.825L123.918 414.035L126.158 412.349C126.158 412.349 127.444 404.237 127.195 404.008C126.958 403.789 126.702 403.899 125.278 406.391Z" fill="#FFC0BB"/>
<path d="M155.672 460.871C155.672 460.871 145.93 473.443 148.237 493.454C150.545 513.466 150.032 520.649 150.032 520.649C150.032 520.649 137.469 532.194 133.624 548.871C133.624 548.871 139.136 552.719 142.854 553.36C142.854 553.36 161.313 525.139 162.722 521.804C164.132 518.469 167.465 461.385 167.465 461.385L155.672 460.871Z" fill="#282828"/>
<path d="M164.612 469.414L166.696 507.907C166.696 507.907 169.773 548.613 173.704 557.165H182.42L178.147 461.555H165.158L164.612 469.414Z" fill="#282828"/>
<path d="M180.415 436.905C179.778 430.99 176.823 425.61 172.269 421.889C171.717 421.437 171.066 421.118 170.372 420.952C168.486 420.5 166.025 420.413 164.818 420.4H160.853C160.853 420.4 154.485 420.754 151.655 421.639C148.825 422.524 137.682 427.48 136.444 426.772C135.206 426.064 126.539 410.311 126.539 410.311L121.763 412.788C121.763 412.788 124.77 434.835 133.083 436.467C141.396 438.1 149.533 435.975 149.533 435.975C149.533 435.975 151.124 458.101 155.193 461.995C155.193 461.995 171.258 463.085 177.229 462.396C178.313 462.271 179.178 461.437 179.351 460.359C179.983 456.41 181.395 446.004 180.415 436.905Z" fill="#FEB546"/>
<path d="M175.286 424.872C174.382 423.794 173.377 422.795 172.276 421.894C171.721 421.44 171.07 421.119 170.373 420.952C168.487 420.5 166.025 420.413 164.818 420.4H160.853C160.853 420.4 159.769 420.46 158.297 420.593C161.499 423.039 167.496 426.343 175.286 424.872Z" fill="#FFC0BB"/>
<path d="M161.757 414.531C161.757 414.531 161.957 416.082 162.088 417.959C163.781 419.329 165.971 420.031 168.253 419.736C169.003 419.639 169.716 419.439 170.382 419.153C170.329 417.929 170.347 416.794 170.536 416.251C171.057 414.757 161.757 414.531 161.757 414.531Z" fill="#F99893"/>
<path d="M174.926 406.941C174.508 408.075 174.905 409.266 175.812 409.6C176.719 409.934 177.793 409.285 178.21 408.15C178.627 407.016 178.23 405.825 177.323 405.491C176.416 405.157 175.343 405.806 174.926 406.941Z" fill="#F99893"/>
<path d="M174.829 413.497C175.091 413.005 175.309 412.485 175.479 411.943C175.965 410.485 176.183 408.947 176.266 407.61C176.284 407.323 176.319 407.038 176.358 406.753C176.519 405.603 176.473 404.391 176.162 403.155C175.161 399.175 171.599 396.273 167.501 396.11C161.98 395.891 157.577 400.397 157.762 405.776C157.167 405.471 156.508 405.418 155.939 405.696C154.848 406.23 154.503 407.769 155.17 409.134C155.837 410.5 157.262 411.174 158.353 410.64C158.505 410.566 158.64 410.471 158.762 410.361C159.385 414.921 163.254 418.325 167.745 418.096C169.942 417.984 171.901 417.021 173.349 415.531C173.446 415.443 173.548 415.341 173.655 415.223C174.123 414.705 174.508 414.12 174.829 413.497Z" fill="#FFC0BB"/>
<path d="M166.425 407.06C166.45 407.545 166.077 407.958 165.593 407.983C165.108 408.007 164.696 407.634 164.671 407.15C164.646 406.665 165.019 406.252 165.503 406.227C165.988 406.202 166.4 406.575 166.425 407.06Z" fill="#333333"/>
<path d="M174.22 407.06C174.244 407.545 173.872 407.958 173.388 407.983C172.903 408.007 172.49 407.634 172.466 407.15C172.441 406.665 172.814 406.252 173.298 406.227C173.782 406.202 174.195 406.575 174.22 407.06Z" fill="#333333"/>
<path d="M167.163 405.595C166.764 405.383 166.349 405.226 165.927 405.121C165.504 405.02 165.072 404.982 164.647 405.023C164.434 405.041 164.224 405.083 164.019 405.141C163.915 405.168 163.814 405.206 163.713 405.242C163.662 405.259 163.613 405.283 163.563 405.303C163.513 405.323 163.462 405.343 163.414 405.368C163.022 405.556 162.652 405.801 162.291 406.074C162.559 405.709 162.902 405.394 163.298 405.152C163.496 405.032 163.708 404.93 163.93 404.857C164.152 404.782 164.383 404.73 164.618 404.71C165.086 404.666 165.561 404.729 165.997 404.887C166.215 404.963 166.424 405.064 166.621 405.181C166.816 405.299 167.004 405.433 167.163 405.595Z" fill="#07085B"/>
<path d="M170.701 405.595C170.861 405.433 171.048 405.299 171.243 405.18C171.44 405.064 171.649 404.963 171.867 404.887C172.303 404.729 172.779 404.666 173.247 404.71C173.481 404.73 173.712 404.782 173.934 404.857C174.157 404.929 174.369 405.031 174.566 405.152C174.963 405.393 175.305 405.709 175.574 406.074C175.212 405.801 174.843 405.555 174.451 405.368C174.402 405.343 174.352 405.323 174.302 405.303C174.251 405.283 174.203 405.259 174.152 405.241C174.05 405.206 173.95 405.168 173.846 405.141C173.64 405.083 173.43 405.04 173.217 405.023C172.793 404.982 172.361 405.02 171.938 405.12C171.515 405.226 171.1 405.383 170.701 405.595Z" fill="#07085B"/>
<path d="M149.66 435.834C149.885 435.6 150.097 435.336 150.293 435.067C150.487 434.795 150.671 434.515 150.831 434.222C150.997 433.931 151.145 433.629 151.272 433.318C151.407 433.009 151.505 432.687 151.606 432.362C151.563 432.699 151.499 433.036 151.392 433.362C151.345 433.527 151.282 433.686 151.221 433.847C151.152 434.004 151.088 434.164 151.009 434.316C150.854 434.623 150.681 434.922 150.482 435.202C150.323 435.429 150.154 435.645 149.965 435.851C150.136 435.885 150.316 435.908 150.493 435.916C150.737 435.928 150.984 435.919 151.228 435.883C151.351 435.868 151.471 435.839 151.592 435.814C151.71 435.778 151.832 435.75 151.947 435.703C152.184 435.623 152.404 435.503 152.625 435.378C152.429 435.538 152.221 435.69 151.987 435.798C151.758 435.914 151.511 435.996 151.258 436.049C151.005 436.103 150.746 436.133 150.486 436.128C150.225 436.124 149.971 436.099 149.708 436.03L149.521 435.98L149.66 435.834Z" fill="white"/>
<path opacity="0.5" d="M176.059 474.526C175.535 475.037 175.028 475.564 174.534 476.102C174.041 476.642 173.562 477.194 173.091 477.753C172.62 478.312 172.157 478.877 171.704 479.451C171.254 480.027 170.803 480.602 170.369 481.189L170.273 481.095C170.669 480.808 171.08 480.552 171.502 480.313C171.925 480.074 172.362 479.863 172.807 479.669C173.251 479.475 173.707 479.307 174.172 479.171L174.521 479.072L174.875 478.99L175.052 478.95L175.231 478.919L175.589 478.86L175.234 478.937L175.058 478.975L174.883 479.021L174.534 479.116L174.189 479.227C174.074 479.261 173.961 479.304 173.848 479.347C173.736 479.39 173.621 479.427 173.51 479.473L173.176 479.611C173.064 479.656 172.956 479.709 172.846 479.758C172.408 479.958 171.981 480.182 171.564 480.422C171.148 480.662 170.739 480.921 170.354 481.203L169.998 481.466L170.258 481.109C170.691 480.517 171.134 479.934 171.593 479.363C172.051 478.792 172.518 478.228 172.995 477.672C173.474 477.118 173.97 476.579 174.474 476.047C174.73 475.785 174.986 475.524 175.252 475.272C175.513 475.014 175.787 474.771 176.059 474.526Z" fill="#DAEEF7"/>
<path opacity="0.5" d="M163.782 481.008C163.219 480.247 162.643 479.499 162.045 478.767C161.45 478.033 160.842 477.31 160.223 476.597C159.6 475.887 158.956 475.195 158.302 474.515C157.97 474.179 157.637 473.844 157.292 473.521C156.954 473.191 156.598 472.88 156.246 472.566C156.926 473.221 157.584 473.896 158.226 474.586C158.866 475.279 159.489 475.987 160.101 476.704C160.713 477.42 161.314 478.146 161.903 478.882C162.377 479.479 162.851 480.078 163.314 480.683C162.941 480.437 162.56 480.209 162.171 479.991C161.623 479.687 161.058 479.418 160.483 479.172C159.909 478.925 159.319 478.712 158.719 478.54L158.267 478.416L157.81 478.313L157.582 478.262L157.351 478.225L156.889 478.151L157.346 478.247L157.575 478.295L157.801 478.354L158.252 478.472L158.697 478.612C158.846 478.656 158.992 478.71 159.138 478.765C159.283 478.819 159.431 478.866 159.575 478.925L160.007 479.099C160.151 479.156 160.292 479.224 160.434 479.286C161 479.541 161.552 479.826 162.092 480.132C162.631 480.438 163.161 480.769 163.659 481.13L164.121 481.465L163.782 481.008Z" fill="#DAEEF7"/>
<path opacity="0.3" d="M167.328 412.176C167.328 412.176 168.358 411.807 169.327 412.442C169.327 412.442 170.375 411.786 171.2 412.413C171.2 412.413 170.817 413.974 169.096 413.869C167.375 413.764 167.328 412.176 167.328 412.176Z" fill="#F99893"/>
<path d="M166.426 411.617C166.621 411.774 166.823 411.92 167.037 412.047C167.248 412.178 167.466 412.296 167.692 412.395C168.142 412.593 168.618 412.732 169.104 412.773C169.59 412.816 170.081 412.756 170.55 412.613C171.018 412.463 171.46 412.228 171.877 411.95C171.691 412.118 171.491 412.273 171.278 412.409C171.065 412.546 170.834 412.654 170.598 412.75C170.359 412.84 170.11 412.905 169.856 412.941C169.602 412.974 169.344 412.981 169.088 412.961C168.577 412.914 168.079 412.761 167.629 412.525C167.18 412.29 166.763 411.99 166.426 411.617Z" fill="#F99893"/>
<path d="M169.672 406.655C169.918 407.054 170.129 407.472 170.321 407.9C170.512 408.327 170.679 408.766 170.81 409.222C170.871 409.452 170.925 409.684 170.942 409.936C170.944 409.999 170.943 410.064 170.935 410.132C170.932 410.166 170.922 410.203 170.915 410.238C170.9 410.276 170.891 410.313 170.863 410.352C170.849 410.371 170.835 410.39 170.82 410.408L170.783 410.439C170.759 410.46 170.735 410.482 170.71 410.5C170.658 410.536 170.608 410.573 170.555 410.603C170.347 410.731 170.127 410.821 169.904 410.9C169.681 410.975 169.454 411.039 169.223 411.079C169.644 410.878 170.069 410.679 170.43 410.417C170.476 410.385 170.516 410.348 170.558 410.314L170.615 410.259L170.643 410.232C170.645 410.226 170.647 410.221 170.651 410.217C170.679 410.172 170.682 410.054 170.671 409.953C170.649 409.739 170.597 409.517 170.534 409.298C170.414 408.858 170.26 408.42 170.113 407.981C169.963 407.543 169.81 407.103 169.672 406.655Z" fill="#F99893"/>
<path d="M156.795 403.909L157.537 403.231L157.863 401.028L160.034 395.874L170.864 394.207C170.864 394.207 170.725 395.057 170.587 395.983C171.848 396.507 173.754 397.29 173.754 397.29C173.754 397.29 167.507 404.359 157.762 405.776C157.762 405.776 156.902 405.261 155.939 405.696L156.795 403.909Z" fill="#07085B"/>
<path d="M163.168 392.778C163.168 392.778 161.989 381.944 153.414 381.086C144.839 380.228 140.98 384.197 135.728 381.944C135.728 381.944 134.978 393.422 145.482 391.276C155.987 389.131 161.239 394.925 161.239 394.925L163.168 392.778Z" fill="#07085B"/>
<path opacity="0.8" d="M596.868 222.057C595.895 217.82 592.107 214.659 587.578 214.659C586.746 214.659 585.94 214.766 585.171 214.967C582.936 210.183 578.085 206.869 572.46 206.869C571.005 206.869 569.603 207.09 568.284 207.502C565.256 202.484 559.754 199.128 553.469 199.128C545.991 199.128 539.622 203.878 537.208 210.527C535.5 209.574 533.533 209.029 531.439 209.029C524.884 209.029 519.571 214.346 519.571 220.905C519.571 221.294 519.591 221.678 519.627 222.058H596.868V222.057Z" fill="white"/>
<path opacity="0.8" d="M245.444 190.513C244.101 184.665 238.871 180.302 232.62 180.302C231.472 180.302 230.359 180.449 229.297 180.726C226.212 174.123 219.516 169.547 211.75 169.547C209.743 169.547 207.807 169.853 205.986 170.421C201.805 163.494 194.211 158.862 185.535 158.862C175.212 158.862 166.42 165.418 163.089 174.596C160.731 173.281 158.016 172.528 155.125 172.528C146.077 172.528 138.742 179.868 138.742 188.922C138.742 189.459 138.769 189.99 138.82 190.513H245.444V190.513Z" fill="white"/>
<path opacity="0.5" d="M433.534 503.321H359.712V508.339H433.534V503.321Z" fill="#E03268"/>
<path opacity="0.5" d="M433.534 517.2H359.712V522.218H433.534V517.2Z" fill="#E03268"/>
<path d="M114.506 379.083L100.583 372.568L98.4777 377.075L112.4 383.59L114.506 379.083Z" fill="#FEB546"/>
<path d="M268.382 149.897L254.459 143.384L252.354 147.891L266.276 154.404L268.382 149.897Z" fill="#FEB546"/>
<path d="M656.426 280.172L642.504 273.657L640.398 278.164L654.32 284.679L656.426 280.172Z" fill="#FEB546"/>
<path d="M630.168 127.592L616.246 121.079L614.14 125.585L628.063 132.098L630.168 127.592Z" fill="#FEB546"/>
<path d="M441.028 159.849L427.105 153.336L425 157.842L438.923 164.356L441.028 159.849Z" fill="#FEB546"/>
<path d="M399.315 47.45L385.393 40.9368L383.288 45.4433L397.21 51.9565L399.315 47.45Z" fill="#FEB546"/>
<path d="M338.591 93.946L325.964 85.1797L323.131 89.2669L335.758 98.0332L338.591 93.946Z" fill="#02CCC0"/>
<path d="M101.194 212.923L88.5676 204.156L85.7341 208.243L98.3609 217.01L101.194 212.923Z" fill="#02CCC0"/>
<path d="M641.199 229.948L628.572 221.182L625.738 225.269L638.365 234.035L641.199 229.948Z" fill="#02CCC0"/>
<path d="M525.151 271.524L512.524 262.758L509.691 266.845L522.318 275.611L525.151 271.524Z" fill="#02CCC0"/>
<path d="M569.979 25.6691L557.352 16.9028L554.518 20.99L567.145 29.7563L569.979 25.6691Z" fill="#02CCC0"/>
<path d="M206.69 67.9396L194.063 59.1733L191.229 63.2605L203.856 72.0268L206.69 67.9396Z" fill="#02CCC0"/>
<path d="M52.7098 367.166L40.0828 358.399L37.2492 362.487L49.8762 371.253L52.7098 367.166Z" fill="#02CCC0"/>
<path d="M111.91 310.543L112.955 325.887L117.914 325.549L116.869 310.205L111.91 310.543Z" fill="#FF5B7E"/>
<path d="M696.194 322.337L697.239 337.681L702.198 337.343L701.153 321.998L696.194 322.337Z" fill="#FF5B7E"/>
<path d="M458.722 84.0992L459.767 99.4434L464.726 99.1051L463.681 83.761L458.722 84.0992Z" fill="#FF5B7E"/>
<path d="M179.417 154.87L180.462 170.214L185.421 169.875L184.376 154.531L179.417 154.87Z" fill="#FF5B7E"/>
<path d="M39.3172 435.681L40.3623 451.025L45.322 450.687L44.2769 435.343L39.3172 435.681Z" fill="#FF5B7E"/>
<path d="M71.2476 284.541L85.2791 278.267L83.2513 273.725L69.2199 279.999L71.2476 284.541Z" fill="#07085B"/>
<path d="M2.08304 412.274L16.1145 406L14.0868 401.459L0.0553306 407.732L2.08304 412.274Z" fill="#07085B"/>
<path d="M146.635 253.553L160.666 247.28L158.639 242.738L144.607 249.011L146.635 253.553Z" fill="#07085B"/>
<path d="M132.746 122.943L146.778 116.67L144.75 112.128L130.719 118.401L132.746 122.943Z" fill="#07085B"/>
<path d="M257.429 104.4L271.46 98.1267L269.433 93.5848L255.401 99.8581L257.429 104.4Z" fill="#07085B"/>
<path d="M319.151 20.9121L333.182 14.6387L331.155 10.0968L317.123 16.3702L319.151 20.9121Z" fill="#07085B"/>
<path d="M472.761 10.8363L486.792 4.56299L484.765 0.0211187L470.733 6.29441L472.761 10.8363Z" fill="#07085B"/>
<path d="M552.226 104.387L566.258 98.114L564.23 93.5721L550.198 99.8454L552.226 104.387Z" fill="#07085B"/>
<path d="M678.699 220.576L692.731 214.303L690.703 209.761L676.671 216.034L678.699 220.576Z" fill="#07085B"/>
<path d="M594.668 336.192L608.699 329.919L606.671 325.377L592.64 331.651L594.668 336.192Z" fill="#07085B"/>
<path d="M634.876 72.8817L648.908 66.6084L646.88 62.0665L632.849 68.3398L634.876 72.8817Z" fill="#07085B"/>
<path d="M140.572 567.107L127.963 557.966C127.574 557.684 127.486 557.138 127.769 556.749C128.051 556.359 128.596 556.272 128.985 556.554L141.594 565.695C141.984 565.977 142.071 566.522 141.789 566.912C141.507 567.302 140.962 567.389 140.572 567.107Z" fill="white"/>
<path d="M132.027 552.219L128.72 555.809C128.312 556.252 128.264 556.887 128.62 557.145L140.974 566.102C141.295 566.334 141.758 566.364 142.199 566.109C142.651 565.848 143.107 565.291 143.121 564.107C143.147 561.807 139.975 558.893 139.052 556.322C138.999 556.173 138.903 556.045 138.775 555.953L133.224 551.929C132.902 551.696 132.396 551.818 132.027 552.219Z" fill="#333333"/>
<path d="M136.454 557.747C136.405 557.628 136.481 557.454 136.616 557.376C137.248 557.014 138.954 556.254 140.302 557.641C140.38 557.722 140.355 557.884 140.251 557.995L140.248 557.999C140.148 558.106 140.011 558.125 139.936 558.048C138.724 556.81 137.244 557.497 136.721 557.806C136.609 557.872 136.495 557.847 136.454 557.747Z" fill="white"/>
<path d="M137.372 559.183C137.322 559.063 137.398 558.889 137.533 558.812C138.165 558.45 139.872 557.689 141.219 559.077C141.297 559.157 141.272 559.319 141.168 559.431L141.165 559.434C141.065 559.542 140.928 559.561 140.853 559.484C139.641 558.245 138.161 558.933 137.638 559.241C137.526 559.307 137.413 559.282 137.372 559.183Z" fill="white"/>
<path d="M138.223 560.52C138.174 560.4 138.25 560.226 138.385 560.149C139.017 559.786 140.723 559.026 142.071 560.414C142.149 560.494 142.124 560.656 142.02 560.767L142.017 560.771C141.917 560.878 141.78 560.898 141.704 560.821C140.493 559.582 139.012 560.269 138.49 560.578C138.378 560.644 138.264 560.619 138.223 560.52Z" fill="white"/>
<path d="M189.872 567.41L174.303 567.4C173.821 567.4 173.432 567.01 173.432 566.528C173.432 566.047 173.823 565.656 174.304 565.657L189.873 565.666C190.354 565.667 190.744 566.057 190.744 566.539C190.744 567.02 190.354 567.41 189.872 567.41Z" fill="white"/>
<path d="M174.229 560.36L173.652 565.209C173.58 565.806 173.914 566.35 174.353 566.35L189.609 566.359C190.005 566.36 190.397 566.112 190.606 565.647C190.819 565.17 190.863 564.452 190.18 563.485C188.854 561.606 184.577 561.106 182.324 559.563C182.194 559.474 182.041 559.427 181.883 559.427L175.028 559.422C174.631 559.423 174.293 559.819 174.229 560.36Z" fill="#333333"/>
<path d="M181.054 562.243C180.944 562.175 180.904 561.989 180.968 561.847C181.267 561.183 182.205 559.566 184.11 559.9C184.22 559.919 184.294 560.065 184.276 560.216L184.275 560.221C184.257 560.367 184.158 560.463 184.051 560.445C182.344 560.152 181.547 561.577 181.304 562.134C181.252 562.252 181.146 562.299 181.054 562.243Z" fill="white"/>
<path d="M182.638 562.868C182.528 562.8 182.487 562.614 182.551 562.472C182.851 561.808 183.789 560.191 185.693 560.525C185.804 560.544 185.878 560.691 185.859 560.841L185.859 560.846C185.84 560.992 185.741 561.088 185.635 561.07C183.928 560.777 183.131 562.202 182.888 562.759C182.836 562.878 182.729 562.925 182.638 562.868Z" fill="white"/>
<path d="M184.111 563.451C184.001 563.383 183.961 563.198 184.025 563.056C184.325 562.392 185.262 560.775 187.167 561.108C187.277 561.127 187.352 561.274 187.333 561.425L187.332 561.43C187.314 561.576 187.215 561.671 187.108 561.653C185.401 561.361 184.604 562.786 184.361 563.342C184.31 563.461 184.203 563.507 184.111 563.451Z" fill="white"/>
<path d="M243.175 567.273L257.061 567.265C257.478 567.264 257.816 566.926 257.816 566.508V566.47C257.816 566.052 257.477 565.714 257.06 565.714L243.174 565.723C242.757 565.723 242.419 566.062 242.419 566.479V566.517C242.42 566.935 242.758 567.273 243.175 567.273Z" fill="white"/>
<path d="M257.108 561.003L257.621 565.315C257.684 565.847 257.387 566.33 256.996 566.33L243.429 566.338C243.076 566.339 242.728 566.119 242.542 565.705C242.352 565.281 242.314 564.642 242.921 563.782C244.1 562.111 247.904 561.666 249.908 560.294C250.023 560.215 250.16 560.173 250.3 560.173L256.397 560.169C256.75 560.169 257.051 560.522 257.108 561.003Z" fill="#333333"/>
<path d="M275.167 567.273L289.052 567.265C289.47 567.264 289.808 566.926 289.807 566.508V566.47C289.807 566.052 289.469 565.714 289.051 565.714L275.166 565.723C274.749 565.723 274.41 566.062 274.411 566.479V566.517C274.411 566.935 274.749 567.273 275.167 567.273Z" fill="white"/>
<path d="M289.099 561.003L289.612 565.315C289.675 565.847 289.379 566.33 288.988 566.33L275.42 566.338C275.068 566.339 274.719 566.119 274.534 565.705C274.343 565.281 274.305 564.642 274.912 563.782C276.092 562.111 279.895 561.666 281.899 560.294C282.015 560.215 282.151 560.173 282.292 560.173L288.388 560.169C288.741 560.169 289.042 560.522 289.099 561.003Z" fill="#333333"/>
<path d="M527.102 567.285L542.672 567.275C543.153 567.275 543.543 566.884 543.543 566.403C543.542 565.921 543.152 565.531 542.671 565.531L527.101 565.541C526.62 565.542 526.23 565.932 526.23 566.414C526.231 566.895 526.621 567.285 527.102 567.285Z" fill="white"/>
<path d="M542.746 560.235L543.323 565.083C543.394 565.681 543.06 566.224 542.621 566.225L527.365 566.234C526.969 566.234 526.577 565.987 526.369 565.522C526.155 565.045 526.112 564.326 526.794 563.36C528.121 561.481 532.398 560.98 534.651 559.438C534.781 559.349 534.934 559.302 535.092 559.302L541.947 559.297C542.343 559.297 542.682 559.694 542.746 560.235Z" fill="#333333"/>
<path d="M535.921 562.117C536.031 562.049 536.071 561.863 536.007 561.722C535.707 561.057 534.77 559.441 532.865 559.774C532.755 559.793 532.681 559.94 532.699 560.091L532.7 560.095C532.718 560.242 532.817 560.337 532.924 560.319C534.631 560.026 535.428 561.452 535.671 562.008C535.722 562.127 535.829 562.174 535.921 562.117Z" fill="white"/>
<path d="M534.337 562.742C534.447 562.675 534.487 562.489 534.423 562.347C534.123 561.683 533.186 560.066 531.281 560.4C531.171 560.419 531.097 560.565 531.115 560.716L531.116 560.721C531.134 560.867 531.233 560.962 531.34 560.944C533.047 560.652 533.844 562.077 534.087 562.633C534.138 562.752 534.245 562.799 534.337 562.742Z" fill="white"/>
<path d="M532.864 563.325C532.974 563.258 533.014 563.072 532.95 562.93C532.65 562.266 531.713 560.649 529.808 560.983C529.698 561.002 529.623 561.148 529.642 561.299L529.643 561.304C529.661 561.45 529.76 561.546 529.867 561.528C531.574 561.235 532.371 562.66 532.613 563.217C532.665 563.335 532.772 563.382 532.864 563.325Z" fill="white"/>
<path d="M581.794 567.285L597.363 567.275C597.844 567.275 598.234 566.884 598.234 566.403C598.233 565.921 597.843 565.531 597.362 565.531L581.792 565.541C581.311 565.542 580.921 565.932 580.922 566.414C580.922 566.895 581.312 567.285 581.794 567.285Z" fill="#444444"/>
<path d="M597.437 560.235L598.014 565.083C598.085 565.681 597.751 566.224 597.312 566.225L582.056 566.234C581.66 566.234 581.268 565.987 581.06 565.522C580.846 565.045 580.803 564.326 581.485 563.36C582.811 561.481 587.088 560.98 589.341 559.438C589.471 559.349 589.625 559.302 589.782 559.302L596.637 559.297C597.034 559.297 597.373 559.694 597.437 560.235Z" fill="#FEB546"/>
<path d="M590.612 562.117C590.722 562.049 590.762 561.863 590.698 561.722C590.398 561.057 589.461 559.441 587.556 559.774C587.446 559.793 587.372 559.94 587.39 560.091L587.391 560.095C587.409 560.242 587.508 560.337 587.615 560.319C589.322 560.026 590.119 561.452 590.362 562.008C590.414 562.127 590.52 562.174 590.612 562.117Z" fill="white"/>
<path d="M589.028 562.742C589.138 562.675 589.178 562.489 589.114 562.347C588.814 561.683 587.877 560.066 585.972 560.4C585.862 560.419 585.787 560.565 585.806 560.716L585.807 560.721C585.825 560.867 585.924 560.962 586.031 560.944C587.738 560.652 588.535 562.077 588.778 562.633C588.829 562.752 588.936 562.799 589.028 562.742Z" fill="white"/>
<path d="M587.554 563.325C587.665 563.258 587.705 563.072 587.641 562.93C587.341 562.266 586.404 560.649 584.499 560.983C584.389 561.002 584.314 561.148 584.333 561.299L584.333 561.304C584.352 561.45 584.451 561.546 584.558 561.528C586.265 561.235 587.062 562.66 587.304 563.217C587.356 563.335 587.463 563.382 587.554 563.325Z" fill="white"/>
<path d="M637.296 567.285L621.726 567.275C621.245 567.275 620.855 566.884 620.855 566.403C620.856 565.921 621.246 565.531 621.727 565.531L637.297 565.541C637.778 565.542 638.168 565.932 638.168 566.414C638.167 566.895 637.777 567.285 637.296 567.285Z" fill="#444444"/>
<path d="M621.652 560.235L621.075 565.083C621.004 565.681 621.339 566.224 621.778 566.225L637.033 566.234C637.429 566.234 637.821 565.987 638.03 565.522C638.243 565.045 638.286 564.326 637.604 563.36C636.278 561.481 632.001 560.98 629.748 559.438C629.618 559.349 629.464 559.302 629.307 559.302L622.452 559.297C622.055 559.297 621.716 559.694 621.652 560.235Z" fill="#FEB546"/>
<path d="M628.477 562.117C628.367 562.049 628.327 561.863 628.391 561.722C628.691 561.057 629.628 559.441 631.533 559.774C631.643 559.793 631.718 559.94 631.699 560.091L631.698 560.095C631.68 560.242 631.581 560.337 631.474 560.319C629.767 560.026 628.97 561.452 628.728 562.008C628.676 562.127 628.569 562.174 628.477 562.117Z" fill="white"/>
<path d="M630.062 562.742C629.951 562.675 629.911 562.489 629.975 562.347C630.275 561.683 631.212 560.066 633.117 560.4C633.227 560.419 633.302 560.565 633.283 560.716L633.282 560.721C633.264 560.867 633.165 560.962 633.058 560.944C631.351 560.652 630.554 562.077 630.312 562.633C630.26 562.752 630.153 562.799 630.062 562.742Z" fill="white"/>
<path d="M631.535 563.325C631.425 563.258 631.384 563.072 631.448 562.93C631.748 562.266 632.685 560.649 634.59 560.983C634.7 561.002 634.775 561.148 634.756 561.299L634.756 561.304C634.737 561.45 634.638 561.546 634.531 561.528C632.825 561.235 632.028 562.66 631.785 563.217C631.733 563.335 631.626 563.382 631.535 563.325Z" fill="white"/>
<path d="M504.451 567.285L520.021 567.275C520.502 567.275 520.891 566.884 520.891 566.403C520.891 565.921 520.501 565.531 520.019 565.531L504.449 565.541C503.968 565.542 503.579 565.932 503.579 566.414C503.579 566.895 503.97 567.285 504.451 567.285Z" fill="white"/>
<path d="M520.094 560.235L520.671 565.083C520.742 565.681 520.408 566.224 519.969 566.225L504.714 566.234C504.317 566.234 503.925 565.987 503.717 565.522C503.503 565.045 503.46 564.326 504.142 563.36C505.469 561.481 509.746 560.98 511.999 559.438C512.129 559.349 512.282 559.302 512.44 559.302L519.295 559.297C519.692 559.297 520.03 559.694 520.094 560.235Z" fill="#333333"/>
<path d="M513.269 562.117C513.379 562.049 513.42 561.863 513.356 561.722C513.055 561.057 512.118 559.441 510.213 559.774C510.103 559.793 510.029 559.94 510.048 560.091L510.048 560.095C510.067 560.242 510.166 560.337 510.272 560.319C511.979 560.026 512.776 561.452 513.019 562.008C513.071 562.127 513.177 562.174 513.269 562.117Z" fill="white"/>
<path d="M511.685 562.742C511.795 562.675 511.835 562.489 511.771 562.347C511.472 561.683 510.534 560.066 508.629 560.4C508.519 560.419 508.445 560.565 508.464 560.716L508.464 560.721C508.482 560.867 508.581 560.962 508.688 560.944C510.395 560.652 511.192 562.077 511.435 562.633C511.487 562.752 511.593 562.799 511.685 562.742Z" fill="white"/>
<path d="M510.212 563.325C510.322 563.258 510.362 563.072 510.298 562.93C509.998 562.266 509.061 560.649 507.156 560.983C507.046 561.002 506.972 561.148 506.99 561.299L506.991 561.304C507.01 561.45 507.108 561.546 507.215 561.528C508.922 561.235 509.719 562.66 509.962 563.217C510.013 563.335 510.12 563.382 510.212 563.325Z" fill="white"/>
</svg>
